<?xml version="1.0" standalone="no"?>
<!DOCTYPE svg PUBLIC "-//W3C//DTD SVG 20010904//EN"
 "http://www.w3.org/TR/2001/REC-SVG-20010904/DTD/svg10.dtd">
<svg version="1.0" xmlns="http://www.w3.org/2000/svg"
 width="640.000000pt" height="640.000000pt" viewBox="0 0 640.000000 640.000000"
 preserveAspectRatio="xMidYMid meet">
<metadata>
Created by potrace 1.11, written by Peter Selinger 2001-2013
</metadata>
<g transform="translate(0.000000,640.000000) scale(0.100000,-0.100000)"
fill="#000000" stroke="none">
<path d="M1776 6232 c-5 -8 8 -36 15 -31 2 2 13 -2 24 -9 11 -6 14 -12 7 -12
-9 0 -10 -5 -2 -19 13 -25 13 -34 -1 -25 -6 3 -3 -5 6 -20 16 -24 14 -31 -8
-27 -5 1 -6 -3 -2 -9 5 -8 11 -8 21 0 15 13 14 31 -1 42 -6 5 -3 8 7 8 9 0 20
-4 23 -10 3 -5 1 -10 -6 -10 -7 0 -9 -3 -6 -6 3 -4 2 -15 -4 -25 -7 -15 -6
-17 6 -13 8 4 15 10 15 15 0 5 5 9 11 9 5 0 7 -4 4 -10 -3 -5 -2 -10 3 -10 5
0 14 -12 20 -26 7 -14 16 -23 21 -19 5 3 12 1 16 -4 3 -6 -3 -8 -15 -6 -22 4
-28 -10 -6 -18 21 -8 14 -52 -8 -50 -12 1 -15 -2 -8 -9 7 -7 18 -6 33 3 21 11
23 10 11 -3 -10 -13 -9 -15 13 -13 14 2 23 -1 19 -6 -3 -5 -11 -6 -17 -3 -7 4
-9 4 -5 -1 4 -4 2 -15 -5 -24 -9 -12 -7 -11 13 2 34 24 47 21 19 -4 -13 -11
-19 -18 -13 -15 6 3 18 -4 27 -15 20 -22 22 -33 5 -23 -7 5 -8 3 -4 -5 5 -7
15 -10 23 -7 8 3 11 1 8 -4 -6 -9 7 -14 27 -11 4 0 12 -9 18 -22 11 -21 10
-21 -4 -3 -14 17 -20 16 -18 -4 0 -3 -8 -7 -19 -7 -10 -1 -19 3 -19 8 0 6 -7
6 -17 1 -28 -14 -75 -24 -69 -14 3 5 -1 9 -9 9 -13 0 -13 -3 1 -18 15 -16 14
-17 -5 -12 -11 3 -22 12 -24 22 -4 13 -5 13 -6 -2 0 -10 -6 -15 -11 -12 -6 4
-7 12 -4 18 5 8 3 8 -7 0 -19 -18 -34 -16 -19 2 11 13 10 14 -4 9 -10 -4 -15
-13 -12 -21 3 -8 6 -17 6 -20 0 -3 7 0 15 7 9 7 15 8 15 2 0 -16 -30 -23 -36
-8 -3 9 -15 13 -29 10 -16 -3 -25 1 -28 13 -4 15 -5 15 -6 -2 -1 -17 -3 -18
-11 -5 -8 13 -10 13 -10 -1 0 -26 -31 -33 -37 -9 -3 11 -10 20 -15 20 -5 0 -7
-4 -4 -8 3 -5 -8 -8 -24 -8 -16 0 -27 3 -24 8 3 4 0 8 -5 8 -6 0 -11 -6 -11
-14 0 -23 -31 -29 -37 -6 -3 11 -10 20 -15 20 -5 0 -7 -4 -4 -8 3 -5 -8 -8
-24 -8 -16 0 -27 3 -24 8 3 4 0 8 -5 8 -6 0 -11 -6 -11 -14 0 -23 -31 -29 -37
-6 -3 11 -10 20 -15 20 -5 0 -7 -4 -4 -8 3 -5 -8 -8 -24 -8 -16 0 -27 3 -24 8
3 4 0 8 -5 8 -6 0 -11 -6 -11 -14 0 -23 -31 -29 -37 -6 -3 11 -10 20 -15 20
-5 0 -7 -4 -4 -8 3 -5 -8 -8 -24 -8 -16 0 -27 3 -24 8 3 4 0 8 -5 8 -6 0 -11
-6 -11 -14 0 -23 -31 -29 -37 -6 -3 11 -10 20 -15 20 -5 0 -7 -4 -4 -8 3 -5
-8 -8 -24 -8 -16 0 -27 3 -24 8 3 4 0 8 -5 8 -6 0 -11 -6 -11 -14 0 -23 -31
-29 -37 -6 -3 11 -10 20 -15 20 -5 0 -7 -4 -4 -8 3 -5 -8 -8 -24 -8 -16 0 -27
3 -24 8 3 4 0 8 -5 8 -6 0 -11 -6 -11 -14 0 -23 -31 -29 -37 -6 -3 11 -10 20
-15 20 -5 0 -7 -4 -4 -8 3 -5 -8 -8 -24 -8 -16 0 -27 3 -24 8 3 4 0 8 -5 8 -6
0 -11 -6 -11 -14 0 -23 -31 -29 -37 -6 -3 11 -10 20 -15 20 -5 0 -7 -4 -4 -8
3 -5 -8 -8 -24 -8 -16 0 -27 3 -24 8 3 4 0 8 -5 8 -6 0 -11 -6 -11 -14 0 -23
-31 -29 -37 -6 -3 11 -10 20 -15 20 -5 0 -7 -4 -4 -8 2 -4 -11 -8 -31 -9 -26
0 -32 2 -22 9 11 8 11 9 -2 5 -9 -3 -28 1 -42 8 -24 12 -25 12 -15 -5 6 -10
19 -16 27 -13 13 4 14 3 2 -5 -16 -12 -41 -5 -41 11 0 6 -3 7 -7 4 -3 -4 -12
-2 -20 5 -7 6 -16 8 -20 5 -3 -4 -13 -1 -21 6 -11 9 -10 4 3 -16 15 -24 16
-27 1 -21 -9 3 -16 11 -16 17 0 6 -3 7 -7 4 -3 -4 -12 -2 -20 5 -7 6 -16 8
-20 5 -3 -4 -13 -1 -21 6 -11 9 -10 4 3 -16 15 -24 16 -27 1 -21 -9 3 -16 11
-16 17 0 6 -3 7 -7 4 -3 -4 -12 -2 -20 5 -7 6 -16 8 -20 5 -3 -4 -13 -1 -21 6
-11 9 -10 4 3 -16 15 -24 16 -27 1 -21 -9 3 -16 11 -16 17 0 6 -3 7 -7 4 -3
-4 -12 -2 -20 5 -7 6 -16 8 -20 5 -3 -4 -13 -1 -21 6 -11 9 -10 4 3 -16 15
-24 16 -27 1 -21 -9 3 -16 11 -16 17 0 6 -3 7 -7 4 -3 -4 -12 -2 -20 5 -7 6
-16 8 -20 5 -3 -4 -13 -1 -21 6 -11 9 -10 4 3 -16 15 -24 16 -27 1 -21 -9 3
-16 10 -16 16 0 5 -4 7 -9 3 -5 -3 -12 -1 -16 4 -3 5 -14 9 -25 8 -10 -1 -17
-5 -14 -9 3 -4 11 -5 18 -2 7 3 19 -3 27 -12 13 -16 12 -16 -8 -5 -13 6 -23 9
-23 6 0 -3 -9 -1 -21 6 -16 8 -24 8 -33 -1 -8 -8 -7 -10 5 -5 9 3 22 -2 30
-12 13 -17 13 -17 -4 -4 -16 13 -20 13 -28 0 -6 -10 -9 -11 -9 -1 0 9 -5 10
-19 3 -10 -6 -21 -7 -25 -4 -3 3 -6 -1 -6 -10 0 -9 -4 -18 -8 -21 -4 -2 -8 4
-8 15 0 18 9 23 29 20 5 -1 6 3 2 9 -3 5 0 7 8 4 8 -3 17 3 21 13 6 14 4 15
-5 6 -6 -6 -18 -9 -25 -6 -8 3 -14 0 -14 -6 0 -6 -7 -11 -15 -11 -8 0 -15 -5
-15 -11 0 -5 -4 -8 -8 -5 -4 2 -8 -4 -8 -14 0 -11 2 -17 5 -15 2 3 10 0 17 -5
6 -6 16 -10 20 -9 23 4 33 -3 31 -20 0 -11 -4 -18 -9 -15 -10 6 -2 -30 13 -58
7 -13 12 -26 11 -29 -1 -4 8 -4 20 -1 l22 5 -22 10 c-13 6 -21 16 -18 24 4 9
1 11 -6 7 -6 -4 -8 -3 -4 4 3 5 2 12 -3 14 -5 1 -2 10 7 18 14 13 15 12 9 -3
-3 -9 -2 -19 4 -22 5 -4 7 -10 4 -15 -3 -5 5 -14 17 -21 40 -22 63 -63 32 -57
-10 2 -19 -4 -21 -12 -4 -12 -3 -12 5 -1 5 7 11 9 13 4 2 -4 16 -18 31 -30 23
-17 25 -22 12 -27 -8 -3 -13 -2 -10 3 3 5 -1 14 -9 21 -13 11 -14 10 -9 -5 4
-10 1 -21 -7 -27 -11 -8 -10 -9 3 -4 10 3 20 1 24 -5 4 -7 10 -6 19 1 10 8 15
8 21 -1 4 -8 3 -9 -4 -5 -7 4 -12 1 -12 -9 0 -10 -5 -13 -12 -9 -7 4 -8 3 -4
-5 6 -9 11 -9 22 0 10 8 14 8 14 1 0 -6 8 -9 17 -6 15 5 15 4 3 -4 -8 -6 -17
-9 -21 -6 -4 2 -11 -1 -15 -7 -4 -8 -3 -9 4 -5 11 7 17 -6 13 -27 -1 -5 3 -6
9 -2 6 3 8 11 5 16 -4 5 -1 9 4 9 22 0 7 -33 -19 -43 -12 -4 -12 -6 2 -6 9 -1
24 6 32 15 9 8 16 11 16 5 0 -5 -12 -20 -27 -32 -16 -12 -21 -20 -12 -16 9 3
23 0 30 -6 11 -10 11 -9 1 4 -10 14 -10 18 3 22 8 4 14 3 14 -1 -3 -20 2 -42
10 -42 4 0 7 10 6 23 -1 12 0 14 2 4 2 -9 8 -15 12 -13 4 3 8 -1 8 -9 0 -8 -4
-12 -8 -9 -4 2 -10 0 -14 -6 -3 -5 1 -10 9 -10 11 0 14 -8 11 -30 -2 -17 0
-28 5 -25 5 3 7 12 4 19 -3 8 -1 17 4 20 5 3 8 -10 6 -29 -2 -34 18 -56 32
-33 5 7 2 8 -6 3 -9 -6 -11 -4 -5 5 6 9 4 11 -6 5 -12 -8 -12 -6 0 8 26 32 35
5 15 -48 -7 -20 -7 -20 12 0 10 11 16 16 12 11 -12 -16 -9 -38 4 -30 7 4 8 3
4 -4 -6 -11 5 -16 26 -14 3 1 9 -5 12 -14 4 -11 2 -12 -12 -5 -11 6 -24 6 -33
0 -10 -6 -10 -9 -1 -9 6 0 12 -10 13 -22 1 -22 1 -22 9 2 4 14 8 19 9 13 1
-14 27 -13 51 2 11 6 10 3 -2 -11 -17 -19 -17 -21 0 -38 9 -11 11 -16 5 -12
-7 4 -13 3 -13 -3 0 -5 6 -11 13 -14 9 -3 9 -9 0 -24 -9 -16 -8 -20 3 -20 7 0
11 4 9 8 -7 10 22 5 32 -6 4 -4 2 -5 -5 -1 -7 4 -12 1 -12 -8 0 -9 5 -16 11
-16 5 0 7 -4 4 -10 -3 -6 1 -7 10 -4 11 4 14 2 9 -9 -3 -8 0 -18 7 -23 8 -5
10 -3 4 5 -6 10 -3 11 14 1 18 -9 20 -14 10 -26 -9 -11 -9 -14 1 -14 9 0 9 -4
3 -12 -14 -17 -12 -47 1 -45 6 1 10 -4 8 -12 -3 -12 -1 -12 14 0 16 12 17 12
12 -2 -4 -10 1 -25 12 -37 10 -11 16 -23 12 -26 -3 -4 1 -4 11 0 13 4 16 2 11
-9 -8 -21 14 -31 33 -15 15 12 15 11 4 -10 -7 -13 -9 -27 -5 -30 4 -4 9 -1 11
6 3 6 10 12 16 12 8 0 7 -4 -1 -12 -15 -15 -16 -62 -2 -53 6 4 8 11 5 16 -4 5
-1 9 5 9 6 0 8 6 4 13 -4 6 -3 9 1 4 12 -10 14 -47 2 -40 -5 3 -7 0 -5 -8 3
-8 12 -13 21 -11 8 1 18 -1 21 -6 6 -10 -45 -9 -62 2 -7 4 -12 5 -12 2 0 -3
12 -12 28 -20 15 -8 21 -15 15 -16 -7 0 -13 -5 -13 -11 0 -8 5 -8 15 1 8 7 12
17 9 24 -3 6 2 2 11 -9 14 -18 14 -20 -2 -27 -10 -3 -12 -7 -5 -7 7 -1 24 6
38 15 22 15 24 15 18 0 -3 -9 -10 -13 -15 -10 -5 3 -9 -2 -9 -11 0 -10 -5 -13
-12 -9 -7 4 -8 3 -4 -5 4 -6 12 -9 17 -6 5 3 6 -1 3 -9 -4 -10 -1 -16 7 -16 7
0 9 -3 6 -7 -4 -3 2 -13 13 -20 18 -12 24 -13 37 -1 14 11 16 11 8 -1 -6 -11
-4 -13 9 -8 11 4 15 3 11 -4 -4 -6 -13 -8 -19 -6 -7 3 -18 -4 -25 -15 -10 -16
-10 -19 1 -12 23 15 56 12 50 -5 -4 -10 -1 -12 8 -6 10 6 11 4 4 -6 -14 -24
-16 -51 -2 -43 10 6 10 5 1 -7 -10 -12 -8 -17 8 -27 11 -7 17 -17 13 -23 -4
-8 0 -8 14 0 15 8 23 7 32 -4 10 -12 8 -13 -9 -10 -11 2 -23 0 -25 -4 -3 -4 1
-8 9 -9 8 -1 21 -3 29 -4 8 -1 13 -9 11 -20 -3 -12 4 -23 20 -30 27 -12 31
-23 13 -34 -7 -4 -8 -3 -4 4 3 6 -3 16 -14 22 -16 9 -24 8 -36 -5 -8 -8 -11
-15 -5 -15 5 0 12 4 16 10 3 5 12 7 20 4 8 -4 12 -10 9 -15 -3 -5 -11 -6 -17
-3 -7 4 -8 3 -4 -2 5 -5 21 -10 35 -10 41 -3 42 -3 36 -19 -7 -18 -25 -20 -20
-2 1 6 1 9 -1 4 -3 -4 -8 -5 -12 -3 -4 3 -8 -1 -8 -9 0 -8 4 -12 8 -9 4 2 14
-2 22 -10 8 -8 17 -13 20 -10 3 3 4 -10 3 -29 -1 -21 3 -34 12 -34 7 0 10 7 7
17 -3 11 1 20 11 24 13 5 15 4 5 -7 -9 -11 -7 -17 5 -28 10 -8 20 -13 23 -11
3 2 7 -5 8 -15 2 -15 1 -15 -6 2 -8 19 -9 19 -16 2 -9 -21 -4 -28 23 -30 11 0
19 -4 16 -8 -2 -4 -13 -6 -23 -4 -11 2 -22 -3 -25 -11 -5 -12 -2 -12 16 -3 18
10 20 9 15 -5 -4 -10 -3 -15 3 -11 6 3 11 1 11 -4 3 -21 5 -26 17 -46 l12 -20
16 20 c16 20 16 20 9 -4 -5 -16 -4 -21 4 -17 6 4 10 4 9 -1 -1 -4 3 -19 10
-33 12 -23 12 -23 -8 3 -22 28 -40 35 -40 16 0 -5 4 -8 9 -4 16 9 25 -16 10
-27 -11 -8 -10 -9 3 -4 10 3 20 1 23 -4 4 -6 13 -10 21 -10 8 0 13 4 10 8 -2
4 4 8 14 9 11 1 22 -2 25 -8 3 -5 0 -6 -8 -3 -21 8 -30 -11 -12 -26 16 -13 10
-35 -6 -24 -5 3 -6 10 -3 16 5 7 2 8 -6 3 -8 -5 -11 -4 -7 2 3 5 0 10 -7 10
-11 0 -12 -4 -3 -19 11 -17 16 -20 46 -22 21 -2 25 -22 6 -30 -9 -3 -13 -2
-10 4 3 6 2 10 -3 10 -6 0 -12 -6 -15 -14 -4 -11 2 -14 28 -11 30 3 32 1 20
-11 -8 -8 -11 -22 -8 -31 5 -12 3 -14 -7 -8 -9 6 -11 4 -6 -4 6 -9 12 -9 25 3
10 9 21 13 24 9 4 -3 7 -1 7 5 0 7 4 12 8 12 5 0 9 -7 9 -15 0 -8 -5 -11 -10
-8 -5 3 -7 0 -5 -8 3 -8 13 -13 23 -11 11 2 14 -1 10 -8 -4 -6 -14 -9 -23 -5
-9 3 -13 3 -10 -1 4 -4 2 -16 -4 -28 -11 -20 -10 -20 9 -3 24 21 40 23 19 1
-18 -17 -13 -34 10 -34 8 0 12 5 9 10 -4 6 -11 7 -17 4 -7 -5 -8 -2 -3 6 6 10
14 7 31 -13 15 -18 24 -22 28 -14 3 7 3 2 0 -10 -3 -13 -1 -23 4 -23 5 0 14
-12 20 -26 7 -14 9 -23 4 -20 -4 2 -14 -5 -22 -17 -12 -20 -12 -21 3 -8 10 7
17 10 17 6 0 -4 8 -1 18 6 15 13 16 12 3 -3 -13 -17 -8 -23 14 -18 6 1 6 -2 2
-6 -4 -4 3 -14 15 -21 21 -12 21 -13 3 -11 -11 2 -26 11 -33 21 -16 21 -29 22
-29 3 0 -8 6 -12 15 -8 11 4 14 1 9 -11 -4 -10 -2 -16 6 -14 7 1 11 -7 10 -18
-1 -11 0 -15 3 -8 3 7 13 9 22 6 15 -4 15 -3 2 6 -8 6 -10 11 -4 11 6 0 13 -3
17 -6 8 -9 -3 -35 -13 -29 -17 10 -3 -28 15 -41 14 -10 15 -14 4 -14 -12 0
-12 -2 1 -10 19 -13 53 -13 45 0 -3 5 -13 7 -23 4 -12 -4 -13 -3 -4 3 9 7 6
12 -13 21 -21 10 -24 14 -13 26 13 14 32 1 22 -15 -2 -4 5 -10 16 -14 11 -3
20 -11 20 -17 0 -5 8 -7 18 -4 16 6 16 5 0 -7 -15 -12 -15 -14 0 -25 16 -11
16 -11 0 -6 -10 4 -18 1 -18 -5 0 -11 15 -15 35 -11 5 1 7 -2 3 -6 -4 -4 0
-14 10 -22 11 -9 8 -9 -10 2 -25 15 -27 15 -21 0 3 -9 0 -20 -8 -26 -11 -8
-11 -9 3 -5 18 6 52 -25 41 -38 -5 -4 1 -3 13 3 16 9 21 8 21 -3 0 -8 -4 -12
-8 -9 -4 2 -10 1 -13 -4 -3 -5 1 -9 9 -10 8 -1 22 -3 30 -4 8 -1 12 -5 10 -9
-3 -4 3 -10 12 -13 14 -6 15 -9 4 -15 -10 -7 -9 -9 3 -14 8 -3 18 -2 21 3 4 6
11 10 18 10 6 0 2 -7 -9 -15 -10 -8 -15 -15 -11 -15 4 0 3 -9 -4 -21 -9 -17
-7 -23 11 -36 17 -12 19 -18 9 -29 -10 -12 -10 -15 2 -12 9 2 13 -4 11 -17 -2
-15 -1 -17 6 -6 8 11 10 11 15 0 4 -11 6 -11 6 1 1 10 6 7 17 -8 8 -12 21 -19
27 -16 7 4 8 3 4 -1 -11 -12 -37 -15 -37 -4 0 5 -5 9 -12 9 -6 0 -4 -7 5 -18
10 -10 14 -22 10 -25 -3 -4 -1 -7 6 -7 7 0 11 6 8 13 -3 7 5 13 21 14 22 1 23
-1 9 -8 -20 -12 -23 -39 -3 -39 17 0 49 -66 40 -83 -4 -6 -4 -9 1 -5 4 4 14 0
22 -8 8 -8 20 -11 26 -7 7 3 8 2 4 -3 -5 -5 -13 -9 -19 -9 -15 0 -19 -33 -6
-42 7 -3 8 -1 4 5 -3 6 3 16 14 22 11 6 20 7 19 3 -1 -4 1 -16 6 -26 4 -10 2
-23 -4 -31 -9 -10 -9 -16 -1 -21 6 -4 9 -3 8 2 -2 4 2 9 7 11 13 3 14 -20 1
-37 -9 -12 -8 -13 3 -6 11 6 13 4 7 -10 -5 -15 -4 -16 9 -5 13 11 13 15 3 21
-15 10 -6 12 16 3 14 -5 14 -8 0 -21 -10 -11 -12 -19 -4 -27 5 -7 8 -15 5 -18
-3 -2 2 -5 10 -5 8 0 12 4 9 9 -3 4 0 8 7 8 6 0 9 -8 6 -19 -7 -28 6 -41 23
-23 13 14 12 15 -3 9 -11 -4 -16 -3 -12 4 10 14 28 6 31 -14 1 -9 -1 -15 -6
-12 -4 3 -10 -1 -13 -9 -6 -16 24 -17 36 -1 4 6 7 1 5 -10 -2 -13 2 -19 11
-17 12 3 12 1 1 -13 -10 -12 -11 -18 -1 -28 10 -9 12 -9 9 2 -2 7 4 16 12 18
13 4 13 3 0 -6 -13 -10 -13 -11 0 -11 12 -1 11 -3 -3 -11 -9 -5 -22 -7 -29 -3
-7 4 -8 3 -4 -4 8 -13 33 -12 55 2 9 6 12 5 7 -2 -3 -5 -3 -12 1 -15 5 -2 2
-2 -4 -1 -7 2 -13 -1 -13 -7 0 -6 -4 -8 -8 -5 -4 2 -8 -4 -8 -14 0 -10 6 -16
13 -13 7 3 11 8 9 12 -3 4 5 7 17 8 12 0 16 -1 10 -4 -16 -6 -17 -33 -1 -33 6
0 8 -3 5 -6 -4 -4 -13 -2 -20 4 -10 9 -14 8 -14 -3 0 -7 3 -14 6 -13 53 5 79
-18 76 -66 -2 -20 2 -39 7 -42 6 -4 5 -10 -3 -16 -11 -8 -10 -9 3 -4 10 3 20
1 23 -4 4 -6 11 -10 18 -10 6 0 1 7 -11 16 -12 8 -19 20 -16 26 4 7 2 8 -4 4
-12 -7 -8 32 4 43 4 3 4 -2 1 -11 -3 -10 -2 -20 4 -23 5 -4 7 -10 4 -15 -7
-11 30 -32 39 -23 3 3 6 3 6 -1 0 -11 -27 -36 -32 -31 -3 3 -5 -2 -5 -10 0 -8
4 -12 8 -9 4 2 11 -1 14 -6 5 -8 14 -5 26 6 19 17 20 17 13 -1 -6 -14 -4 -16
6 -10 10 6 11 4 4 -6 -13 -21 -16 -51 -4 -44 6 3 7 -1 4 -10 -5 -11 -2 -14 12
-9 14 4 13 0 -6 -15 -19 -16 -20 -20 -6 -14 15 5 17 3 11 -8 -4 -8 -5 -11 0
-7 4 4 14 3 21 -3 8 -7 14 -7 19 1 3 5 12 10 18 10 7 0 6 -4 -3 -10 -12 -8
-12 -12 -2 -18 18 -12 4 -42 -16 -35 -23 8 23 -26 67 -49 30 -16 32 -18 9 -13
-30 6 -47 -10 -29 -28 9 -9 10 -8 5 7 -5 14 -3 17 7 14 8 -3 15 -10 15 -16 1
-7 2 -17 3 -23 0 -6 10 -8 24 -4 17 5 19 4 7 -4 -8 -6 -11 -11 -6 -11 5 0 2
-7 -5 -17 -8 -9 -13 -17 -12 -17 1 -1 0 -12 -4 -24 -4 -18 -8 -20 -14 -10 -12
18 -11 31 1 23 6 -4 7 1 3 11 -5 14 -8 13 -19 -7 -12 -21 -11 -26 7 -41 12
-10 16 -18 11 -18 -6 0 -14 5 -17 10 -3 6 -11 10 -17 10 -6 0 -5 -7 3 -17 10
-12 10 -15 1 -9 -7 4 -19 0 -28 -9 -15 -15 -18 -15 -37 2 -14 12 -17 13 -11 3
5 -8 9 -28 10 -45 1 -16 -1 -24 -4 -16 -3 10 -8 8 -17 -8 -11 -22 -12 -22 -12
8 0 18 3 27 7 21 5 -8 9 -7 13 3 3 9 -2 21 -11 29 -10 8 -13 8 -9 1 4 -6 2
-15 -4 -18 -5 -4 -8 -13 -5 -21 3 -8 1 -14 -4 -14 -5 0 -7 -8 -5 -19 3 -15 -2
-18 -28 -15 -24 3 -28 1 -19 -8 7 -7 12 -17 12 -23 0 -5 -4 -4 -9 4 -11 17
-32 5 -24 -14 6 -18 -13 -20 -23 -3 -5 7 -2 8 7 3 8 -5 11 -5 7 0 -4 4 -3 14
2 20 8 9 6 14 -4 18 -11 4 -13 1 -9 -10 4 -10 2 -14 -5 -9 -7 4 -9 -2 -6 -19
4 -23 3 -25 -16 -15 -25 14 -26 6 0 -17 18 -18 19 -19 0 -19 -10 0 -17 3 -14
7 2 4 -3 9 -10 12 -10 4 -14 0 -11 -13 3 -14 -1 -17 -13 -13 -15 6 -15 5 -3
-10 7 -9 18 -14 24 -10 6 3 7 1 3 -6 -6 -9 -11 -9 -21 -1 -8 7 -19 9 -25 5 -5
-3 -10 0 -10 7 0 10 -2 10 -9 -1 -5 -8 -7 -20 -4 -27 2 -7 -5 -15 -16 -19 -12
-3 -18 -11 -15 -17 5 -7 2 -8 -6 -3 -9 5 -10 1 -6 -16 6 -22 6 -22 -5 -5 -10
16 -9 22 8 35 11 9 20 24 20 34 0 17 -11 14 -13 -4 -1 -5 -2 -12 -3 -15 0 -4
-9 0 -18 7 -16 13 -17 12 -5 -3 12 -15 9 -19 -18 -33 -18 -9 -28 -20 -24 -27
5 -7 2 -9 -8 -6 -8 4 -15 0 -15 -7 0 -10 5 -11 19 -4 10 6 16 14 13 20 -7 11
5 12 22 1 8 -5 2 -12 -18 -21 -24 -10 -27 -16 -18 -27 6 -8 7 -14 3 -14 -5 0
-18 12 -28 28 -9 15 -15 19 -12 10 3 -10 2 -18 -2 -19 -37 -4 -70 -19 -42 -19
9 0 7 -5 -5 -14 -11 -8 -24 -12 -29 -9 -5 4 -6 0 -1 -7 6 -9 4 -12 -7 -8 -9 4
-15 0 -15 -8 0 -12 4 -12 23 1 20 13 23 12 28 -1 3 -8 2 -13 -3 -9 -16 10 -40
-6 -34 -23 4 -13 3 -14 -5 -3 -13 18 -33 5 -25 -16 5 -12 2 -15 -10 -10 -12 4
-15 1 -12 -14 3 -17 1 -18 -10 -9 -8 7 -15 7 -19 1 -3 -5 0 -12 6 -15 9 -4 8
-5 -2 -5 -30 2 -41 -1 -35 -11 3 -5 0 -7 -8 -4 -7 2 -14 12 -14 20 0 8 6 13
13 10 6 -2 21 2 32 9 10 8 23 11 27 7 5 -4 5 -1 1 6 -6 9 -12 9 -29 0 -12 -7
-28 -12 -36 -13 -8 0 -16 -13 -18 -28 -2 -17 0 -26 6 -23 5 4 13 1 17 -5 4 -7
3 -9 -4 -5 -6 3 -13 2 -17 -3 -4 -7 -15 -7 -31 -1 -36 14 -43 12 -14 -5 l25
-15 -35 3 c-24 1 -34 -2 -33 -10 2 -7 -4 -13 -13 -13 -11 0 -14 -5 -10 -16 3
-9 6 -18 6 -20 0 -3 5 -2 11 2 7 4 8 9 1 13 -5 3 0 13 12 23 18 13 23 13 23 3
0 -8 -5 -13 -11 -12 -6 1 -10 -3 -9 -9 1 -7 -7 -20 -19 -30 -12 -11 -18 -14
-15 -8 4 7 1 17 -6 22 -10 9 -13 5 -11 -18 1 -17 -2 -30 -7 -30 -5 0 -8 10 -6
21 1 12 -4 23 -11 25 -7 1 -8 0 -2 -3 5 -2 10 -8 10 -13 0 -9 -26 -7 -36 3 -4
4 -12 7 -18 7 -6 0 -5 -4 3 -9 11 -7 11 -13 -3 -32 -9 -13 -16 -20 -16 -15 0
5 -9 -3 -21 -18 -19 -24 -48 -38 -35 -17 7 11 -21 8 -31 -4 -4 -4 -3 -5 3 -2
7 4 17 0 24 -8 7 -8 17 -12 23 -8 6 3 7 1 3 -5 -5 -9 -13 -9 -27 -2 -10 6 -19
8 -19 4 0 -3 -8 0 -17 7 -16 13 -17 12 -5 -2 11 -14 9 -20 -13 -37 -23 -18
-24 -22 -9 -30 15 -8 15 -9 0 -15 -10 -4 -15 -3 -12 2 7 10 -19 23 -28 14 -3
-4 0 -13 7 -21 10 -13 9 -14 -12 -3 -17 9 -21 10 -16 1 4 -6 17 -15 29 -20 18
-7 16 -8 -11 -7 -18 1 -33 7 -33 12 0 6 -4 4 -9 -4 -5 -8 -7 -20 -5 -26 3 -7
-4 -15 -15 -18 -23 -6 -39 9 -19 16 9 2 8 4 -1 3 -20 -1 -21 -45 -2 -56 9 -5
11 -10 5 -10 -6 0 -14 3 -18 8 -4 4 -12 8 -17 8 -5 1 -10 2 -11 4 -10 7 -38 6
-38 -2 0 -6 7 -7 15 -4 9 3 18 -1 21 -9 4 -8 11 -12 18 -8 6 4 5 -1 -3 -10 -8
-10 -16 -15 -19 -12 -3 3 -17 -5 -31 -17 -14 -13 -20 -16 -13 -7 10 13 10 18
-1 22 -23 9 -49 -19 -45 -49 2 -18 -2 -29 -12 -31 -11 -3 -12 -2 -3 4 9 6 7
12 -7 21 -14 8 -21 9 -26 0 -4 -7 -3 -8 4 -4 7 4 12 1 12 -8 0 -9 -5 -16 -11
-16 -5 0 -8 -4 -4 -10 3 -5 -7 -17 -22 -26 -15 -10 -38 -28 -51 -40 -21 -22
-59 -24 -46 -3 3 5 0 8 -8 7 -7 -2 -12 3 -10 10 1 8 -2 11 -8 7 -8 -5 -7 -11
1 -21 14 -18 -5 -43 -37 -48 -10 -2 -18 -9 -16 -16 2 -8 -3 -10 -12 -7 -9 4
-15 3 -13 -1 1 -4 -3 -7 -8 -7 -6 0 -9 3 -8 7 2 5 -2 8 -7 8 -12 0 -13 -13 -3
-24 5 -4 8 -12 8 -16 0 -5 9 -16 20 -25 18 -15 17 -15 -13 0 -30 14 -33 14
-38 0 -4 -9 -13 -14 -21 -11 -8 3 -12 2 -9 -2 8 -14 -9 -31 -34 -35 -14 -2
-24 -7 -22 -11 1 -4 -4 -14 -13 -23 -9 -8 -13 -23 -10 -31 3 -9 3 -13 -1 -9
-9 9 -66 -32 -59 -44 4 -5 -2 -6 -11 -2 -15 6 -15 7 2 20 10 8 18 19 16 25 -2
6 4 8 12 5 9 -4 18 -3 20 2 3 4 -8 7 -24 7 -23 0 -27 -2 -18 -13 13 -17 -3
-17 -22 0 -12 10 -12 9 -2 -4 11 -14 9 -20 -11 -36 -13 -10 -22 -24 -19 -32 3
-9 0 -11 -7 -7 -7 4 -18 2 -26 -4 -8 -6 -19 -9 -24 -6 -5 4 -13 1 -17 -5 -4
-8 -3 -9 4 -5 7 4 12 2 12 -5 0 -8 7 -6 19 5 19 17 19 17 17 -1 -2 -14 -11
-18 -40 -17 -21 1 -33 -2 -27 -5 6 -4 6 -12 1 -20 -4 -8 -7 -19 -6 -25 2 -6 1
-8 -1 -3 -9 15 -21 6 -25 -21 -4 -27 -4 -27 59 -28 56 -1 61 0 45 13 -12 11
-10 11 10 -1 20 -12 28 -12 31 -3 4 9 6 9 6 0 1 -7 6 -13 12 -13 5 0 7 5 3 12
-5 7 -3 8 5 3 24 -14 82 -13 88 2 5 12 7 12 14 2 8 -14 69 -20 69 -7 0 4 5 8
11 8 5 0 7 -4 4 -10 -3 -5 -1 -10 4 -10 6 0 11 6 11 13 0 7 3 8 8 2 13 -18 46
-17 60 2 13 16 14 16 9 1 -7 -20 9 -25 16 -5 4 10 6 10 6 0 1 -7 6 -13 12 -13
5 0 7 5 3 12 -5 7 -3 8 5 3 24 -14 82 -13 88 2 5 12 7 12 14 2 8 -14 69 -20
69 -7 0 4 5 8 11 8 5 0 7 -4 4 -10 -3 -5 -1 -10 4 -10 6 0 11 6 11 13 0 7 3 8
8 2 13 -18 46 -17 60 2 13 16 14 16 9 1 -7 -20 9 -25 16 -5 4 10 6 10 6 0 1
-7 11 -13 24 -12 21 0 21 1 2 9 -15 6 -16 9 -4 9 9 1 19 -2 23 -6 3 -4 16 -8
28 -10 18 -3 19 -1 7 14 -13 16 -12 17 4 4 9 -7 17 -10 17 -7 0 4 8 2 18 -3
13 -7 23 -6 32 2 7 7 10 7 7 2 -9 -16 103 -12 112 4 7 11 9 11 13 0 5 -14 68
-21 68 -7 0 4 5 8 11 8 5 0 7 -5 4 -10 -3 -6 -1 -10 4 -10 6 0 11 6 11 13 0 7
3 8 8 2 13 -18 46 -17 60 2 13 16 14 16 9 0 -7 -19 9 -24 16 -4 4 9 6 9 6 0 1
-7 11 -13 24 -12 21 0 21 1 2 9 -15 6 -16 9 -4 9 9 1 19 -2 23 -6 3 -4 16 -8
28 -10 18 -3 19 -1 7 14 -13 16 -12 17 4 4 9 -7 17 -10 17 -7 0 4 8 2 18 -3
13 -7 23 -6 32 2 9 8 11 8 7 1 -5 -8 2 -11 17 -10 16 1 22 6 19 16 -4 13 -3
13 5 0 11 -17 97 -20 121 -5 10 5 12 4 7 -3 -4 -7 -2 -12 4 -12 6 0 13 7 17
16 4 12 8 13 14 3 8 -14 69 -20 69 -7 0 4 5 8 11 8 5 0 7 -4 4 -10 -10 -16 7
-12 27 7 15 13 19 14 16 3 -2 -7 6 -15 17 -17 16 -3 17 -2 5 6 -8 6 -10 11 -4
11 6 0 14 -3 18 -7 3 -4 16 -8 28 -10 18 -3 19 -1 7 14 -13 16 -12 17 3 4 10
-7 18 -10 18 -7 0 4 8 2 18 -3 13 -7 23 -6 32 2 7 7 10 7 7 2 -9 -16 103 -12
112 4 7 11 9 11 13 0 6 -18 99 -19 105 -1 5 11 7 11 14 1 9 -16 69 -20 69 -5
0 8 3 8 8 0 9 -15 73 -14 65 0 -5 7 -2 7 8 0 15 -13 59 -2 59 15 0 10 39 27
54 22 5 -1 4 5 -4 13 -14 18 -25 22 -15 6 3 -5 2 -10 -3 -10 -11 0 -25 30 -17
38 3 3 5 0 5 -6 0 -6 11 -9 26 -6 18 3 23 1 18 -7 -4 -8 -3 -9 4 -5 7 4 12 2
12 -5 0 -7 3 -9 6 -6 4 4 1 13 -6 22 -7 8 -9 15 -5 15 4 0 2 7 -5 15 -8 9 -8
15 -2 15 6 0 14 -10 18 -22 6 -21 7 -21 20 4 8 15 23 29 34 33 11 3 20 11 20
16 0 6 -3 8 -7 6 -5 -3 -17 -1 -28 4 -14 5 -7 7 22 5 23 -1 40 1 37 5 -2 4 -1
9 3 12 5 2 2 2 -5 1 -9 -3 -10 1 -3 15 6 10 7 22 3 26 -4 3 -2 6 3 5 6 -1 17
-2 25 -1 13 1 13 2 0 11 -12 8 -11 10 5 8 11 -2 21 2 23 7 1 6 -2 10 -8 10 -5
0 -15 6 -22 14 -11 12 -10 12 2 5 23 -13 62 -13 56 1 -5 13 22 13 43 0 10 -6
12 -4 6 5 -6 10 -4 12 10 6 15 -5 16 -4 5 9 -7 9 -16 12 -19 8 -3 -4 -11 -9
-18 -10 -13 -3 -12 22 2 34 4 5 5 2 0 -6 -6 -11 -4 -13 7 -8 9 3 26 -2 39 -11
20 -13 22 -14 12 -1 -7 9 -9 20 -5 24 4 5 2 5 -5 1 -6 -3 -15 -1 -19 5 -4 8
-3 9 4 5 7 -4 12 -1 12 6 1 7 8 1 16 -14 17 -33 20 -34 20 -9 0 11 -4 17 -8
15 -13 -8 -9 21 5 35 10 12 8 13 -8 7 -14 -5 -17 -4 -10 3 6 6 21 12 34 14 27
4 41 24 33 46 -3 9 -2 13 2 9 4 -3 9 -13 10 -22 1 -9 5 -16 9 -16 4 0 9 0 12
0 3 0 1 8 -4 18 -6 12 -6 23 0 33 8 11 9 10 7 -6 -2 -14 3 -20 19 -21 12 -1
20 3 17 8 -3 4 -9 6 -13 4 -4 -3 -8 1 -8 9 0 8 3 13 5 10 3 -3 12 1 20 8 13 9
14 9 8 0 -4 -7 -2 -21 3 -30 6 -10 11 -13 11 -7 0 6 20 10 47 10 33 -1 47 3
50 14 3 11 2 12 -4 3 -6 -9 -12 -7 -22 8 -10 17 -10 20 1 13 13 -9 18 -10 39
-13 6 0 8 -9 4 -18 -5 -14 -4 -15 6 -6 9 9 18 9 33 2 18 -9 18 -8 -3 10 -13
12 -18 21 -13 21 6 0 14 -5 17 -10 3 -6 11 -10 16 -10 6 0 7 5 3 11 -5 8 -1 8
14 0 17 -9 23 -8 31 6 6 10 10 14 11 8 0 -21 -17 -35 -36 -30 -15 5 -16 4 -4
-3 21 -14 63 -8 68 9 3 11 1 11 -7 -1 -7 -9 -11 -10 -11 -3 0 17 14 23 29 13
8 -4 10 -13 6 -21 -6 -11 -5 -11 5 -2 9 9 19 9 34 2 17 -8 16 -6 -4 11 -22 19
-22 20 -3 11 28 -14 36 -14 27 0 -5 8 -1 8 14 0 17 -9 23 -8 31 6 6 10 10 14
11 8 0 -21 -17 -35 -36 -30 -15 5 -16 4 -4 -3 21 -14 63 -8 68 9 3 11 1 11 -7
-1 -7 -9 -11 -10 -11 -3 0 17 14 23 29 13 8 -5 10 -13 5 -21 -7 -12 -5 -12 9
0 9 7 14 18 11 23 -4 6 2 6 13 -1 11 -6 23 -8 26 -4 4 3 15 -5 25 -18 l19 -23
7 22 c4 12 12 20 17 16 5 -3 6 -11 3 -17 -5 -9 -4 -9 6 0 7 6 19 9 26 6 8 -3
14 0 14 6 0 6 4 11 9 11 6 0 8 -9 6 -21 -3 -17 -2 -19 10 -9 8 7 12 17 8 22
-3 6 0 8 8 6 8 -3 13 -11 12 -17 -5 -20 12 -11 28 15 14 22 17 24 22 10 5 -12
3 -15 -6 -10 -7 4 -7 1 2 -7 10 -11 15 -11 18 -1 3 6 9 12 14 12 6 0 7 -6 3
-12 -6 -10 -5 -10 7 -1 11 9 54 12 54 3 0 -1 10 -3 23 -6 12 -2 22 0 22 6 0 5
12 8 28 7 18 -1 26 2 24 11 -1 8 2 11 8 7 7 -4 7 -12 0 -26 -16 -29 3 -23 21
7 14 22 17 24 22 10 5 -12 3 -15 -6 -10 -9 5 -8 3 1 -7 9 -10 15 -11 20 -2 4
6 18 10 32 9 16 0 24 4 22 12 -1 8 2 11 7 8 5 -3 7 -16 5 -29 -2 -12 -2 -17 1
-10 4 6 17 9 31 7 13 -2 24 0 24 6 0 5 4 10 9 10 6 0 8 -10 6 -22 -4 -17 -2
-19 8 -9 6 6 12 16 12 22 0 12 20 12 21 -1 1 -5 2 -16 3 -22 1 -9 4 -8 11 2
11 18 30 20 48 6 7 -5 12 -5 10 0 -1 5 6 22 17 38 17 26 20 27 26 10 7 -18 8
-18 8 -1 1 11 6 15 13 11 6 -4 8 -3 4 4 -3 6 -15 9 -26 7 -11 -2 -22 0 -25 5
-3 4 11 7 30 6 19 -1 35 2 35 7 0 4 5 5 12 1 6 -4 8 -3 4 4 -3 6 -19 9 -34 6
-19 -3 -23 -2 -12 5 8 5 18 7 22 5 12 -8 10 10 -3 23 -8 8 -8 13 0 18 6 3 10
3 9 -2 -2 -4 2 -8 7 -8 6 0 9 5 9 12 -1 8 5 9 22 1 13 -6 21 -15 18 -19 -3 -5
2 -6 10 -3 13 5 12 9 -7 26 -20 17 -20 18 -2 9 13 -6 27 -6 38 0 9 6 23 7 30
4 6 -4 3 1 -8 10 -18 14 -21 14 -31 0 -10 -14 -13 -14 -24 0 -11 13 -10 14 6
8 17 -6 18 -5 4 12 -9 11 -10 16 -2 11 7 -4 12 -2 12 6 0 9 3 9 10 -2 5 -8 10
-11 10 -6 0 5 9 1 20 -9 11 -10 20 -13 20 -7 0 7 -5 12 -11 12 -5 0 -7 5 -4
10 5 8 12 7 23 -2 10 -8 13 -9 9 -1 -4 6 4 20 19 32 24 19 20 27 -8 22 -5 0
-8 4 -8 10 0 6 8 8 18 5 14 -5 14 -4 -2 9 -11 8 -16 15 -11 15 5 0 20 -10 33
-22 l25 -23 -12 22 c-9 17 -8 25 5 38 15 15 15 17 -2 31 -18 14 -18 14 4 4 24
-11 28 -25 12 -35 -6 -4 -7 -11 -4 -17 5 -7 2 -8 -6 -3 -8 5 -11 4 -7 -3 8
-11 32 -10 44 2 4 4 3 6 -2 4 -6 -2 -11 1 -13 6 -2 9 16 16 50 19 9 1 14 5 11
10 -2 4 -13 5 -22 2 -11 -3 -24 2 -32 12 -9 11 -10 14 -1 9 7 -4 12 -2 12 6 0
8 3 9 8 3 4 -5 18 -11 32 -12 14 -1 19 1 11 4 -10 4 -8 9 9 18 19 10 20 13 6
18 -10 4 -15 3 -12 -2 3 -5 -1 -11 -9 -15 -8 -3 -17 0 -21 7 -4 7 -4 9 1 5 4
-4 16 4 27 17 11 14 24 23 28 20 5 -3 17 7 27 22 20 30 63 76 63 66 0 -3 6 0
14 6 7 6 20 9 27 6 14 -5 62 55 57 71 -3 10 5 14 25 14 8 0 7 -4 -3 -11 -12
-9 -12 -10 3 -5 10 3 21 6 24 6 3 0 -3 8 -14 18 -10 9 -14 14 -8 11 19 -10 56
-4 65 10 5 10 3 26 -6 45 -12 25 -12 28 -1 14 16 -20 47 -24 47 -7 0 5 -4 8
-9 4 -20 -12 -20 13 0 31 20 18 21 18 36 -1 13 -16 15 -17 10 -3 -4 12 -1 18
9 18 9 0 12 -5 8 -12 -4 -7 -3 -8 4 -4 20 12 2 37 -22 30 -25 -8 -20 -1 13 16
13 6 21 7 17 2 -3 -6 -1 -14 5 -18 7 -4 9 -3 6 2 -3 6 -2 16 3 24 5 9 4 20 -3
28 -6 8 6 5 26 -7 20 -11 37 -16 37 -11 0 6 -5 10 -11 10 -5 0 -7 5 -3 12 4 6
3 8 -2 5 -6 -3 -16 -2 -23 2 -7 5 -1 8 19 9 19 0 28 -3 24 -10 -4 -7 -2 -8 5
-4 9 6 9 11 1 21 -7 9 -6 20 4 39 11 22 15 24 20 11 8 -21 8 -26 -2 -22 -4 1
-8 -2 -10 -7 -1 -6 4 -11 11 -12 10 -1 14 9 14 35 0 23 4 35 12 33 6 -1 14 5
17 13 4 8 11 15 17 15 5 0 2 -9 -8 -20 -11 -12 -20 -31 -22 -43 -3 -21 -2 -21
9 -2 7 11 13 23 14 28 1 4 2 10 3 15 1 4 6 0 11 -8 8 -12 10 -11 7 5 -1 11 -6
26 -11 33 -4 7 -4 11 1 10 5 -2 22 9 38 25 16 15 34 27 40 27 5 0 4 -4 -3 -9
-8 -4 -13 -12 -13 -17 1 -5 -3 -9 -8 -9 -20 0 -21 -13 -2 -18 11 -3 19 0 18 5
-1 6 4 13 12 16 10 3 12 0 7 -14 -6 -15 -5 -16 5 -7 9 9 9 15 0 26 -9 11 -8
17 6 28 15 12 16 12 10 -6 l-7 -20 15 20 c8 11 19 25 25 32 15 17 12 27 -3 14
-8 -6 -17 -8 -21 -4 -4 4 -4 -1 0 -12 4 -11 4 -17 -1 -13 -4 4 -13 4 -19 -2
-7 -5 -17 -5 -26 2 -13 8 -12 9 2 5 10 -4 22 3 32 19 9 13 22 23 29 21 7 -1
11 8 11 21 -1 18 1 20 12 11 10 -8 11 -15 4 -24 -8 -10 -8 -15 1 -21 7 -4 9
-3 5 4 -3 6 -2 13 4 17 5 3 10 1 10 -4 0 -6 5 -11 11 -11 6 0 0 15 -12 33 -13
17 -16 26 -8 20 9 -7 20 -9 24 -5 5 4 5 2 2 -4 -4 -7 1 -18 11 -25 15 -12 16
-12 4 2 -10 14 -10 18 3 23 9 3 13 11 9 17 -4 7 0 9 14 5 12 -4 22 -1 25 8 9
22 -3 26 -28 10 -18 -12 -24 -12 -33 -1 -9 10 -6 13 11 14 40 3 61 10 65 23 3
7 0 10 -7 6 -6 -4 -11 -3 -11 2 0 21 59 35 73 17 5 -6 7 -4 4 5 -2 8 -9 15
-14 15 -6 0 -15 4 -20 9 -5 5 -3 6 5 2 7 -5 16 1 22 16 11 23 11 23 6 1 -3
-16 1 -23 11 -23 8 0 11 5 7 12 -5 7 0 9 14 6 13 -4 19 -2 17 6 -3 6 2 20 11
31 12 16 17 17 23 7 7 -11 10 -10 15 3 3 9 11 13 17 9 7 -4 9 -3 5 4 -3 6 -2
13 3 17 6 3 8 12 4 21 -4 12 -8 12 -22 2 -9 -7 -3 2 13 20 23 25 36 31 60 28
17 -2 30 -9 28 -16 -1 -6 2 -9 8 -5 8 5 8 11 -1 21 -6 7 -15 12 -19 9 -9 -6
-23 25 -15 33 3 3 5 0 5 -6 0 -7 11 -11 23 -10 13 1 24 8 24 15 0 9 -4 10 -13
2 -8 -7 -14 -7 -19 1 -8 12 -8 12 30 14 17 1 35 -4 41 -12 8 -11 10 -8 10 15
-1 20 5 31 21 38 16 7 21 15 17 27 -3 10 -1 18 5 18 6 0 11 -6 11 -12 0 -10 2
-10 8 0 5 7 19 14 32 17 12 2 25 7 29 11 3 4 -2 4 -12 1 -11 -4 -20 -1 -23 8
-4 8 -11 12 -16 9 -6 -4 -6 -9 2 -14 8 -5 8 -9 -3 -13 -13 -5 -16 9 -7 33 1 3
2 8 1 13 -2 13 17 7 23 -8 3 -8 12 -12 21 -9 14 6 13 8 -2 21 -10 8 -12 11 -4
7 10 -5 13 -3 8 9 -4 11 -2 14 8 10 8 -3 12 -10 8 -16 -4 -6 -1 -7 7 -2 9 6
12 4 8 -7 -4 -8 -1 -15 7 -15 8 0 11 7 7 15 -4 11 -1 13 8 7 9 -5 11 -4 6 4
-4 6 -11 9 -16 6 -4 -3 -10 4 -13 16 -5 20 -5 20 20 4 14 -10 22 -12 19 -6 -4
6 -1 11 6 11 10 0 10 2 1 8 -9 6 -8 12 6 24 11 9 22 13 26 10 3 -4 3 1 -1 11
-6 16 -9 15 -30 -8 -13 -14 -28 -25 -34 -25 -7 0 -6 5 2 14 7 8 17 11 22 8 5
-3 7 2 3 11 -4 10 -2 16 6 14 7 -1 12 8 12 20 0 12 5 26 9 30 5 4 6 3 2 -4 -5
-9 -2 -11 8 -7 12 5 13 9 3 19 -10 10 -15 9 -29 -8 -23 -26 -23 -9 -1 23 l16
25 -25 -23 c-19 -17 -28 -20 -33 -11 -5 7 -4 10 3 5 12 -7 21 4 27 32 2 11 -3
19 -11 20 -8 1 -20 3 -28 4 -11 1 -12 8 -4 30 6 16 8 32 4 35 -3 4 -6 1 -6 -5
0 -6 -7 -9 -15 -6 -8 4 -15 10 -15 16 0 5 4 7 8 4 4 -2 14 0 22 6 12 8 12 9
-2 4 -10 -3 -20 -1 -23 4 -4 6 -12 10 -18 10 -8 0 -8 -3 1 -9 10 -6 10 -10 -2
-20 -10 -8 -16 -9 -21 -2 -8 14 19 53 31 43 4 -4 3 1 -5 10 -7 9 -20 14 -29
12 -13 -4 -13 -2 3 12 18 15 18 16 2 10 -15 -5 -17 -2 -12 13 3 12 0 21 -9 24
-20 8 -32 -11 -17 -26 6 -6 11 -18 11 -26 0 -9 -8 -2 -16 16 -9 18 -21 34 -27
36 -7 2 -4 3 6 2 9 -2 17 -1 17 2 0 3 -8 12 -17 20 -10 8 -12 12 -6 8 9 -4 11
-1 7 9 -3 9 -10 14 -14 11 -5 -3 -11 -1 -15 5 -4 6 -10 8 -14 6 -4 -3 -8 1 -8
9 0 8 4 12 8 10 4 -3 10 2 13 11 3 8 2 13 -2 10 -5 -3 -16 6 -26 19 -10 13
-24 21 -32 18 -8 -3 -14 0 -14 5 0 20 17 21 38 2 20 -19 21 -19 19 -1 -1 12
-6 17 -16 13 -9 -3 -12 -1 -7 6 4 7 -4 9 -26 7 -19 -3 -28 -1 -20 3 7 5 14 17
16 28 3 17 -1 20 -25 18 -16 -1 -26 2 -23 7 3 5 0 9 -7 9 -7 0 -10 3 -7 6 4 3
16 0 28 -6 20 -11 21 -10 10 9 -6 12 -8 27 -4 34 4 6 4 9 -1 5 -4 -4 -13 0
-20 9 -9 13 -14 13 -20 3 -6 -9 -4 -11 5 -5 9 5 11 4 6 -3 -4 -7 -2 -12 3 -12
6 0 11 -4 11 -10 0 -5 -7 -10 -17 -10 -9 0 -13 3 -10 7 4 3 -3 18 -15 31 -13
14 -18 22 -12 19 7 -4 14 2 17 14 3 12 0 22 -9 26 -8 3 -11 10 -7 16 3 6 1 7
-6 3 -6 -4 -9 -11 -6 -16 7 -11 -22 -7 -32 5 -4 4 -2 5 5 1 22 -13 13 14 -13
39 -19 16 -22 25 -14 31 8 4 9 3 5 -4 -4 -7 -3 -12 3 -12 18 0 7 36 -11 37
-10 1 -16 -2 -14 -6 3 -4 -1 -8 -9 -8 -18 0 -19 4 -3 21 7 7 19 12 28 11 8 -1
9 0 2 2 -7 3 -9 10 -5 16 3 7 -3 4 -14 -6 -14 -12 -23 -15 -28 -7 -3 5 -12 7
-18 3 -8 -4 -7 -1 1 9 11 14 10 18 -5 27 -10 6 -13 11 -6 11 6 0 15 -5 18 -10
4 -6 11 -8 16 -4 6 4 4 13 -5 23 -12 13 -13 20 -4 29 9 9 9 12 0 12 -7 0 -12
-5 -12 -11 0 -6 -8 -8 -17 -5 -16 5 -16 4 1 -8 18 -14 18 -15 -2 -13 -11 0
-18 5 -16 9 3 5 -1 11 -9 14 -7 2 -14 11 -14 19 0 8 4 12 8 10 3 -3 9 4 12 15
4 16 2 18 -13 10 -13 -7 -21 -7 -25 0 -4 6 -11 7 -17 4 -6 -4 -8 -2 -4 4 3 5
0 12 -6 15 -7 3 -3 4 9 4 12 -1 20 -4 17 -8 -8 -13 26 -3 39 11 10 12 9 12 -4
2 -21 -15 -32 -4 -17 17 10 13 10 14 -2 4 -8 -7 -21 -13 -30 -13 -12 0 -13 2
-1 9 11 7 9 10 -8 16 -14 4 -20 14 -19 31 1 13 6 24 10 24 4 0 8 4 8 9 0 8 -8
8 -39 2 -2 -1 2 -8 9 -16 7 -9 8 -15 2 -15 -14 0 -23 27 -15 48 6 15 5 15 -10
3 -10 -8 -20 -11 -24 -7 -3 3 -2 6 4 6 6 0 13 9 16 20 3 11 1 18 -4 14 -12 -7
-11 9 1 24 6 6 7 10 4 7 -4 -3 -13 0 -21 6 -9 9 -10 15 -3 25 9 9 7 12 -7 9
-10 -2 -22 -4 -27 -4 -6 -1 -1 -8 10 -17 18 -14 17 -14 -6 -2 -14 7 -29 11
-34 10 -5 -2 -4 3 3 11 19 23 21 55 5 68 -8 6 -17 9 -21 5 -3 -3 -1 -6 5 -6 6
0 9 -9 7 -20 -3 -14 0 -18 8 -13 7 4 6 0 -2 -10 -7 -9 -19 -17 -25 -17 -7 0
-6 4 2 9 17 11 18 12 4 37 -10 19 -8 24 11 38 12 9 15 13 6 10 -10 -3 -20 0
-24 5 -3 6 -12 8 -18 4 -7 -4 -18 -8 -25 -9 -10 -2 -11 1 -1 12 6 8 18 14 25
14 8 0 14 4 14 8 0 5 -7 9 -15 9 -8 0 -15 -3 -15 -6 0 -4 -8 -11 -18 -18 -15
-9 -19 -8 -19 2 0 8 5 13 11 12 6 -1 11 9 11 23 -1 14 4 28 10 32 6 5 6 8 0 9
-5 0 -18 2 -28 4 -9 2 -15 -1 -11 -6 3 -5 11 -6 17 -3 7 4 8 3 4 -1 -14 -16
-35 -13 -32 4 2 9 4 20 4 24 1 5 6 5 13 1 7 -4 8 -3 4 5 -4 6 -11 9 -16 6 -4
-3 -10 -2 -13 2 -2 5 -2 3 -1 -4 2 -7 0 -14 -4 -17 -4 -3 -9 5 -9 17 -1 12 3
25 10 29 9 6 9 8 0 8 -7 0 -13 8 -13 18 0 14 -2 15 -10 2 -6 -9 -5 -17 2 -21
7 -4 7 -9 -1 -13 -6 -4 -8 -12 -5 -18 4 -7 2 -8 -4 -4 -6 4 -9 13 -5 21 3 8 0
15 -6 15 -6 0 -11 5 -11 11 0 5 4 8 9 5 5 -3 11 4 14 16 6 23 -10 41 -27 31
-6 -4 -7 1 -2 13 4 10 4 15 0 11 -8 -8 -41 28 -50 55 -4 13 -12 18 -23 15 -11
-2 -18 1 -18 10 0 8 7 11 19 7 10 -3 18 0 18 6 0 6 -5 8 -12 4 -8 -5 -9 -2 -4
12 4 10 4 15 0 11 -11 -10 -34 12 -28 28 3 7 1 15 -3 18 -5 3 -9 -6 -9 -21 1
-15 8 -30 16 -34 11 -6 10 -7 -5 -5 -13 1 -20 10 -20 22 0 11 -6 26 -15 33
-13 12 -13 13 0 7 8 -4 2 4 -15 19 -16 14 -26 25 -21 26 5 0 1 10 -10 22 -10
12 -13 18 -6 14 7 -4 12 -1 12 8 0 19 -11 21 -27 5 -8 -8 -13 -8 -17 0 -4 6
-4 11 0 11 3 0 1 7 -6 15 -7 8 -9 15 -5 15 5 0 1 8 -8 18 -8 9 -17 24 -19 32
-2 8 -9 21 -16 29 -7 7 -11 19 -8 26 3 8 -1 16 -9 19 -9 3 -12 -1 -10 -13 2
-10 -3 -18 -11 -18 -9 0 -11 4 -4 12 6 7 6 15 -1 22 -10 10 -2 46 10 39 4 -3
7 4 7 14 0 19 -11 20 -36 5 -19 -12 -51 -14 -44 -3 3 5 13 7 22 6 11 -2 17 4
18 19 1 12 -2 20 -7 18 -4 -3 -10 -1 -14 5 -3 5 0 10 7 10 10 0 10 2 -1 9 -8
5 -23 8 -33 6 -10 -2 -18 0 -18 6 0 5 9 9 19 9 11 0 23 5 27 12 5 7 2 9 -8 5
-24 -9 -30 4 -13 23 14 16 14 17 -7 16 -15 -1 -24 6 -26 18 -3 13 0 16 9 11 8
-6 10 -4 5 4 -5 7 -11 10 -14 7 -3 -4 -16 1 -30 10 -20 13 -26 14 -34 3 -8
-11 -9 -10 -4 4 3 9 1 17 -5 17 -5 0 -9 8 -7 18 2 11 -3 17 -15 16 -9 -1 -17
2 -17 7 0 5 7 9 15 9 8 0 15 5 15 10 0 6 -6 10 -12 9 -7 -1 -24 -1 -38 1 -23
1 -23 2 -5 10 12 5 14 9 6 9 -8 1 -11 4 -7 8 4 5 13 0 21 -10 11 -16 13 -15
11 12 0 16 -3 28 -5 25 -2 -2 -11 2 -20 9 -14 11 -14 10 -2 -5 7 -10 9 -18 3
-18 -5 0 -13 7 -16 16 -3 8 -10 13 -15 10 -5 -3 -11 0 -14 7 -3 7 3 13 13 13
10 0 16 -4 14 -8 -3 -4 2 -5 11 -1 13 4 14 8 4 14 -10 6 -10 11 0 22 8 11 9
17 1 22 -6 4 -10 3 -9 -2 4 -18 -13 -41 -27 -36 -14 5 -21 25 -6 21 4 -2 8 0
10 5 6 18 0 19 -19 1 l-22 -19 13 25 c12 23 12 24 -3 12 -9 -8 -22 -12 -29 -9
-8 4 -7 6 5 6 9 1 17 8 17 17 0 9 5 12 13 8 6 -4 4 2 -6 13 -9 11 -14 23 -10
28 5 4 3 5 -4 2 -6 -4 -10 -18 -8 -32 1 -14 0 -23 -4 -19 -3 3 -6 24 -6 47 0
30 -4 41 -14 39 -9 -2 -11 3 -7 15 6 14 5 15 -5 6 -10 -10 -9 -16 4 -31 9 -10
14 -22 10 -25 -9 -9 -34 13 -27 24 3 5 1 9 -5 9 -5 0 -11 -5 -13 -12 -3 -8 -7
-6 -11 5 -4 10 -2 16 4 14 6 -1 15 9 20 23 6 13 7 21 3 17 -4 -4 -13 1 -21 11
-13 15 -13 14 -3 -6 7 -13 10 -26 7 -28 -2 -2 -8 6 -14 18 -12 26 1 73 17 63
16 -10 12 1 -6 15 -8 8 -14 9 -12 4 2 -5 -1 -10 -7 -11 -5 -2 -10 0 -10 5 0 4
-4 13 -8 20 -5 6 -5 16 -2 22 4 6 -1 7 -11 3 -11 -4 -15 -3 -10 5 4 7 -4 9
-25 7 l-31 -4 22 19 c15 13 18 20 9 20 -11 0 -11 2 1 10 11 8 8 9 -12 4 -18
-4 -28 -2 -28 6 0 6 4 8 10 5 5 -3 7 0 4 9 -3 8 -13 17 -21 20 -12 5 -13 3 -5
-7 8 -9 8 -17 0 -27 -8 -12 -9 -12 -4 2 3 10 1 20 -4 23 -20 12 -10 33 13 28
12 -3 20 -3 17 0 -10 10 -60 16 -60 6 0 -5 -5 -9 -11 -9 -8 0 -8 4 0 14 9 11
9 20 2 35 -18 33 -12 38 9 6 16 -25 19 -26 17 -8 0 12 -5 19 -9 17 -4 -3 -8 0
-8 5 0 6 5 11 11 11 5 0 7 5 3 11 -3 6 -9 7 -13 3 -3 -5 -14 -10 -23 -12 -21
-3 -25 33 -5 42 6 3 2 3 -11 0 -12 -3 -22 -2 -21 3 4 21 -3 32 -21 38 -11 3
-20 13 -20 21 0 17 -17 19 -22 2 -3 -7 -7 -5 -11 6 -4 10 -3 15 3 11 6 -3 10
0 10 7 0 7 11 0 25 -15 30 -31 32 -32 32 -12 0 8 -3 12 -7 10 -10 -6 -39 32
-32 41 4 5 -1 2 -10 -5 -16 -11 -17 -9 -14 23 3 31 2 35 -10 25 -12 -10 -13
-9 -8 5 3 9 2 16 -3 16 -16 0 -11 -34 6 -47 11 -9 12 -12 3 -13 -7 0 -11 -4
-8 -8 3 -5 -1 -9 -9 -9 -10 0 -12 4 -5 12 7 9 6 16 -3 24 -8 6 -16 10 -18 8
-2 -1 0 3 6 8 15 15 17 35 5 49 -5 7 -7 15 -4 19 3 3 -3 3 -15 0 -13 -3 -21
-1 -21 6 0 7 4 9 10 6 6 -3 7 1 4 9 -3 9 -16 16 -28 16 -20 1 -20 1 4 16 23
14 23 14 3 9 -17 -5 -23 -2 -23 10 0 10 5 13 13 9 6 -4 9 -4 5 1 -4 4 -2 15 5
24 11 14 10 14 -6 2 -16 -13 -22 -8 -18 13 1 5 -10 1 -24 -8 -18 -12 -24 -13
-23 -4 2 8 -6 13 -19 12 -13 -1 -20 3 -17 7 3 5 9 7 14 4 4 -2 10 6 12 20 6
27 -9 33 -32 13 -12 -11 -12 -10 -2 4 10 13 10 17 0 21 -10 4 -10 7 1 18 8 8
11 9 7 2 -7 -14 10 -28 18 -14 3 5 -1 14 -9 21 -8 7 -12 17 -8 23 3 5 2 7 -3
4 -6 -3 -16 -2 -24 3 -9 5 -20 4 -29 -3 -12 -10 -13 -9 -6 3 14 22 13 50 -1
50 -6 0 -14 6 -17 14 -4 9 2 12 17 11 14 -2 23 3 23 11 0 10 -4 11 -11 4 -12
-12 -29 -13 -22 -1 3 5 -2 15 -11 22 -9 8 -21 27 -28 43 -11 26 -13 27 -18 7
-3 -12 -1 -19 4 -15 11 6 11 -4 -1 -31 -8 -19 -9 -19 -9 2 -1 12 -7 24 -13 26
-10 4 -10 6 0 6 6 1 12 9 12 19 0 14 -2 15 -10 2 -7 -10 -10 -11 -11 -2 -1 6
-2 18 -3 25 -1 6 -10 11 -20 10 -13 -1 -15 2 -7 10 12 12 44 -10 35 -25 -4 -6
3 -5 15 2 18 9 21 30 5 30 -3 0 -2 -4 1 -10 3 -5 2 -10 -2 -10 -11 0 -43 37
-43 50 0 6 -4 10 -10 10 -5 0 -7 -6 -4 -14 3 -8 0 -17 -7 -22 -7 -4 -10 -3 -5
4 7 11 -41 88 -53 85 -4 -1 -8 4 -8 12 0 8 4 12 8 10 4 -3 10 2 13 11 9 24 7
31 -4 14 -8 -13 -10 -12 -10 3 0 10 -4 16 -9 13 -12 -8 -18 11 -16 51 0 22 -3
29 -9 23 -13 -13 -29 -13 -21 -1 3 5 0 13 -7 18 -17 10 -158 11 -158 1 0 -5
-5 -8 -11 -8 -5 0 -7 5 -4 10 10 16 -7 12 -27 -7 -13 -12 -18 -13 -16 -4 2 7
-5 15 -15 16 -9 2 -15 -1 -12 -5 3 -5 1 -12 -5 -15 -6 -4 -9 -1 -8 6 4 15 -54
19 -64 4 -5 -6 -8 -5 -8 3 0 6 -4 12 -10 12 -5 0 -7 -8 -4 -17 5 -16 4 -16 -8
-3 -16 18 -53 27 -43 10 6 -9 2 -9 -13 -1 -11 6 -23 11 -27 11 -3 0 -3 -5 1
-11 4 -8 1 -8 -12 -1 -21 10 -68 10 -99 -2 -16 -6 -17 -6 -5 3 13 9 13 11 -2
11 -9 0 -22 -8 -28 -17 -11 -17 -11 -17 -6 0 3 9 1 17 -4 17 -6 0 -10 -4 -10
-10 0 -5 -5 -10 -11 -10 -5 0 -7 5 -4 10 10 16 -7 12 -27 -7 -14 -12 -18 -13
-16 -4 2 9 -8 14 -29 16 -18 1 -33 -2 -33 -7 0 -4 -5 -8 -11 -8 -5 0 -7 5 -4
10 10 16 -7 12 -27 -7 -14 -12 -18 -13 -16 -4 3 15 -40 23 -48 9 -3 -5 -11 -5
-17 0 -16 13 -78 11 -70 -1 4 -6 1 -7 -8 -1 -17 11 -199 12 -199 2 0 -5 -5 -8
-11 -8 -5 0 -7 5 -4 10 10 16 -7 12 -27 -7 -13 -12 -18 -13 -16 -4 2 7 -5 15
-15 16 -9 2 -15 -1 -12 -5 3 -5 1 -12 -5 -15 -6 -4 -9 -1 -8 6 4 15 -54 19
-64 4 -5 -6 -8 -5 -8 3 0 6 -4 12 -10 12 -5 0 -7 -8 -4 -17 5 -16 4 -16 -8 -3
-16 18 -53 27 -43 10 6 -9 2 -9 -13 -1 -11 6 -23 11 -27 11 -3 0 -3 -5 1 -11
4 -8 1 -8 -12 -1 -21 10 -68 10 -99 -2 -16 -6 -17 -6 -5 3 13 9 13 11 -2 11
-9 0 -22 -8 -28 -17 -11 -17 -11 -17 -6 0 3 9 1 17 -4 17 -6 0 -10 -4 -10 -10
0 -5 -5 -10 -11 -10 -5 0 -7 5 -4 10 10 16 -7 12 -27 -7 -14 -12 -18 -13 -16
-4 2 9 -8 14 -29 16 -18 1 -33 -2 -33 -7 0 -4 -5 -8 -11 -8 -5 0 -7 5 -4 10
10 16 -7 12 -27 -7 -14 -12 -18 -13 -16 -4 3 15 -40 23 -48 9 -3 -5 -11 -5
-17 0 -16 13 -78 11 -70 -1 4 -6 1 -7 -6 -3 -23 14 -70 17 -92 6 -14 -8 -24
-9 -31 -2 -7 7 -15 6 -25 -4 -8 -8 -19 -14 -26 -14 -6 0 -2 7 9 15 18 13 17
14 -13 10 -18 -2 -42 -7 -54 -10 -15 -5 -19 -4 -15 4 4 6 5 11 2 11 -3 0 -7
-4 -10 -8z m204 -6 c0 -2 -7 -7 -16 -10 -8 -3 -12 -2 -9 4 6 10 25 14 25 6z
m110 -6 c0 -5 -2 -10 -4 -10 -3 0 -8 5 -11 10 -3 6 -1 10 4 10 6 0 11 -4 11
-10z m370 6 c0 -2 -7 -7 -16 -10 -8 -3 -12 -2 -9 4 6 10 25 14 25 6z m480 0
c0 -2 -7 -7 -16 -10 -8 -3 -12 -2 -9 4 6 10 25 14 25 6z m110 -6 c0 -5 -2 -10
-4 -10 -3 0 -8 5 -11 10 -3 6 -1 10 4 10 6 0 11 -4 11 -10z m370 6 c0 -2 -7
-7 -16 -10 -8 -3 -12 -2 -9 4 6 10 25 14 25 6z m485 -6 c3 -5 1 -10 -4 -10 -6
0 -11 5 -11 10 0 6 2 10 4 10 3 0 8 -4 11 -10z m31 -45 c-1 -8 -8 -21 -16 -28
-12 -10 -12 -9 -1 6 9 11 10 17 2 17 -6 0 -11 5 -11 10 0 6 6 10 14 10 8 0 13
-7 12 -15z m-2076 -11 c0 -8 -19 -13 -24 -6 -3 5 1 9 9 9 8 0 15 -2 15 -3z
m2093 -45 c5 -3 2 -9 -5 -12 -9 -3 -14 3 -15 15 -1 11 1 16 5 12 4 -5 11 -12
15 -15z m-2022 -56 c13 -16 12 -17 -3 -4 -10 7 -18 15 -18 17 0 8 8 3 21 -13z
m2079 -64 c0 -5 -4 -9 -8 -9 -5 0 -9 7 -9 15 0 8 4 12 9 9 4 -3 8 -9 8 -15z
m-2045 -18 c3 -5 2 -12 -3 -15 -5 -3 -9 1 -9 9 0 17 3 19 12 6z m49 -107 c5
-14 4 -15 -9 -4 -17 14 -19 20 -6 20 5 0 12 -7 15 -16z m2129 -23 c-4 -3 -11
-10 -16 -16 -5 -5 -5 1 -2 14 4 14 3 21 -2 18 -5 -4 -10 0 -10 8 0 13 4 12 19
-2 10 -9 15 -19 11 -22z m-2080 -16 c-7 -21 -12 -19 -10 4 0 11 5 18 9 15 4
-3 5 -11 1 -19z m-1792 -82 c13 -15 12 -15 -8 -4 -24 12 -29 21 -14 21 5 0 15
-7 22 -17z m80 0 c13 -15 12 -15 -8 -4 -24 12 -29 21 -14 21 5 0 15 -7 22 -17z
m80 0 c13 -15 12 -15 -8 -4 -24 12 -29 21 -14 21 5 0 15 -7 22 -17z m80 0 c13
-15 12 -15 -8 -4 -24 12 -29 21 -14 21 5 0 15 -7 22 -17z m80 0 c13 -15 12
-15 -8 -4 -24 12 -29 21 -14 21 5 0 15 -7 22 -17z m1419 13 c0 -3 -4 -8 -10
-11 -5 -3 -10 -1 -10 4 0 6 5 11 10 11 6 0 10 -2 10 -4z m-35 -16 c3 -6 -1 -7
-9 -4 -18 7 -21 14 -7 14 6 0 13 -4 16 -10z m2239 -8 c2 -4 -4 -8 -15 -8 -10
0 -19 4 -19 8 0 4 6 8 14 8 8 0 17 -4 20 -8z m91 -131 c3 -6 -4 -15 -15 -21
-20 -11 -21 -10 -10 9 12 23 16 25 25 12z m-4144 -18 c13 -16 12 -17 -3 -4
-10 7 -18 15 -18 17 0 8 8 3 21 -13z m4176 -59 c-3 -3 -12 -4 -19 -1 -8 3 -5
6 6 6 11 1 17 -2 13 -5z m36 -47 c-5 -11 -7 -11 -28 1 -19 11 -18 12 5 8 14
-1 24 -6 23 -9z m112 -177 c3 -5 1 -10 -4 -10 -6 0 -11 5 -11 10 0 6 2 10 4
10 3 0 8 -4 11 -10z m15 -35 c0 -2 -6 -5 -13 -8 -8 -3 -14 1 -14 8 0 7 6 11
14 8 7 -3 13 -6 13 -8z m185 -266 c-3 -4 -1 -10 5 -14 5 -3 10 -10 10 -15 0
-4 -16 8 -35 27 -38 38 -38 68 1 32 13 -12 21 -25 19 -30z m-35 -9 c0 -5 -2
-10 -4 -10 -3 0 -8 5 -11 10 -3 6 -1 10 4 10 6 0 11 -4 11 -10z m44 -58 c3 -5
-1 -9 -9 -9 -8 0 -12 4 -9 9 3 4 7 8 9 8 2 0 6 -4 9 -8z m-4084 -128 c0 -3 -7
-1 -15 6 -8 7 -15 17 -15 22 0 5 7 3 15 -6 8 -8 15 -18 15 -22z m17 14 c-3 -8
-6 -5 -6 6 -1 11 2 17 5 13 3 -3 4 -12 1 -19z m4134 5 c13 -16 12 -17 -3 -4
-17 13 -22 21 -14 21 2 0 10 -8 17 -17z m-4111 -33 c0 -5 -5 -10 -11 -10 -5 0
-8 -4 -4 -10 3 -5 13 -7 23 -4 14 5 14 4 2 -4 -18 -13 -41 3 -33 24 6 16 23
19 23 4z m4356 -284 c5 -11 16 -20 24 -18 11 3 11 0 0 -12 -7 -9 -9 -16 -5
-16 5 0 6 -3 2 -6 -3 -4 -13 1 -22 10 -9 9 -12 16 -5 16 6 0 8 5 5 10 -4 6 -9
9 -13 6 -4 -2 -16 1 -27 5 -18 9 -18 9 3 5 12 -2 22 0 22 5 0 5 -4 9 -9 9 -5
0 -11 7 -15 15 -9 24 28 -3 40 -29z m-4153 -29 c7 4 7 0 -2 -10 -13 -16 -36
-14 -26 3 3 4 -2 10 -10 14 -9 3 -12 12 -8 22 5 14 8 12 20 -10 9 -16 19 -24
26 -19z m4204 -64 c-4 -3 1 -15 10 -25 16 -18 16 -18 0 -12 -9 3 -17 10 -17
15 0 5 -8 9 -17 10 -15 0 -15 2 2 9 25 11 30 12 22 3z m44 -76 c-10 -9 -11 -8
-5 6 3 10 9 15 12 12 3 -3 0 -11 -7 -18z m-4155 -12 c-3 -24 -12 -27 -27 -8
-9 11 -10 14 -1 9 6 -4 12 -2 12 3 0 6 4 11 9 11 5 0 8 -7 7 -15z m4197 -90
c4 -8 3 -16 -1 -19 -4 -3 -9 4 -9 15 -2 23 3 25 10 4z m-4118 -13 c-3 -3 -11
0 -18 7 -9 10 -8 11 6 5 10 -3 15 -9 12 -12z m155 -252 c-8 -5 -19 -10 -25
-10 -5 0 -3 5 5 10 8 5 20 10 25 10 6 0 3 -5 -5 -10z m14 -36 c6 2 8 1 4 -1
-5 -3 -8 -12 -8 -21 0 -12 -3 -13 -12 -4 -6 6 -13 19 -14 28 -2 12 1 13 8 6 6
-6 16 -9 22 -8z m4153 -36 c-3 -8 -6 -5 -6 6 -1 11 2 17 5 13 3 -3 4 -12 1
-19z m48 -37 c-6 -5 -25 10 -25 20 0 5 6 4 14 -3 8 -7 12 -15 11 -17z m19 -27
c3 -8 2 -12 -4 -9 -6 3 -10 10 -10 16 0 14 7 11 14 -7z m31 -3 c3 -5 1 -12 -5
-16 -5 -3 -10 1 -10 9 0 18 6 21 15 7z m-18 -76 c0 -8 -4 -12 -9 -9 -5 3 -6
10 -3 15 9 13 12 11 12 -6z m-4087 -49 c0 -2 -7 -7 -16 -10 -8 -3 -12 -2 -9 4
6 10 25 14 25 6z m4187 -31 c0 -17 -13 -20 -21 -6 -4 5 0 12 6 14 7 3 13 6 14
6 0 1 1 -6 1 -14z m-4102 -73 c-3 -3 -11 0 -18 7 -9 10 -8 11 6 5 10 -3 15 -9
12 -12z m4160 8 c3 -5 1 -10 -4 -10 -6 0 -11 5 -11 10 0 6 2 10 4 10 3 0 8 -4
11 -10z m-21 -18 c2 -4 -4 -8 -14 -8 -10 0 -16 4 -14 8 3 4 9 8 14 8 5 0 11
-4 14 -8z m107 -135 c-13 -13 -26 -3 -16 12 3 6 11 8 17 5 6 -4 6 -10 -1 -17z
m9 -25 c0 -5 -7 -9 -15 -9 -8 0 -12 4 -9 9 3 4 9 8 15 8 5 0 9 -4 9 -8z m10
-62 c0 -5 -5 -10 -11 -10 -5 0 -7 5 -4 10 3 6 8 10 11 10 2 0 4 -4 4 -10z
m-4034 -159 c9 7 12 6 10 -5 -4 -26 -12 -27 -32 -4 -10 13 -12 17 -4 11 9 -9
17 -9 26 -2z m113 -182 c-15 -9 -32 -2 -24 11 3 5 13 6 21 3 12 -4 13 -8 3
-14z m4156 1 c3 -5 1 -10 -4 -10 -6 0 -11 5 -11 10 0 6 2 10 4 10 3 0 8 -4 11
-10z m-4140 -19 c-3 -5 2 -17 11 -25 16 -16 8 -22 -11 -8 -14 10 -18 42 -5 42
6 0 9 -4 5 -9z m4200 -31 c-3 -5 -14 -10 -23 -9 -14 0 -13 2 3 9 27 11 27 11
20 0z m-4140 -38 c-3 -3 -11 0 -18 7 -9 10 -8 11 6 5 10 -3 15 -9 12 -12z
m4116 1 c13 -16 12 -17 -3 -4 -10 7 -18 15 -18 17 0 8 8 3 21 -13z m-4043
-117 c-7 -8 -15 -12 -17 -11 -5 6 10 25 20 25 5 0 4 -6 -3 -14z m18 -44 c1 -7
0 -8 -3 -2 -2 5 -9 8 -14 4 -5 -3 -9 0 -9 6 0 15 23 7 26 -8z m4177 -33 c5 -3
2 -9 -5 -12 -9 -3 -14 3 -15 15 -1 11 1 16 5 12 4 -5 11 -12 15 -15z m-4103
-74 c5 3 12 0 16 -6 4 -8 3 -9 -4 -5 -7 4 -12 2 -12 -3 0 -6 -5 -11 -11 -11
-5 0 -8 4 -4 9 3 5 1 12 -5 16 -5 3 -10 12 -10 18 0 7 5 4 11 -6 6 -9 14 -15
19 -12z m4140 -5 c0 -5 -2 -10 -4 -10 -3 0 -8 5 -11 10 -3 6 -1 10 4 10 6 0
11 -4 11 -10z m-4112 -69 c-7 -11 -16 -17 -21 -14 -4 3 0 11 10 19 24 18 25
17 11 -5z m42 -7 c0 -8 -19 -13 -24 -6 -3 5 1 9 9 9 8 0 15 -2 15 -3z m4210
-102 c0 -5 -7 -9 -15 -9 -8 0 -15 4 -15 9 0 4 7 8 15 8 8 0 15 -4 15 -8z m45
-61 c3 -5 0 -13 -6 -17 -8 -5 -9 -3 -4 6 6 10 4 12 -8 7 -10 -3 -17 -2 -17 3
0 13 27 13 35 1z m-4125 -61 c0 -5 -2 -10 -4 -10 -3 0 -8 5 -11 10 -3 6 -1 10
4 10 6 0 11 -4 11 -10z m104 -195 c-4 -8 -11 -12 -16 -9 -6 4 -5 10 3 15 19
12 19 11 13 -6z m3879 -29 c4 -10 1 -13 -9 -9 -9 3 -14 0 -12 -7 4 -19 -19
-23 -26 -5 -3 9 -2 13 4 10 6 -3 13 1 16 9 8 20 20 20 27 2z m-3822 -33 c13
-16 12 -17 -3 -4 -10 7 -18 15 -18 17 0 8 8 3 21 -13z m3777 -14 c9 -12 9 -16
-1 -16 -7 0 -14 9 -14 20 -1 11 -1 18 0 16 2 -2 8 -11 15 -20z m-3755 -22 c9
-24 -8 -40 -23 -22 -11 13 -10 14 4 9 12 -5 15 -2 10 10 -3 9 -4 16 -1 16 3 0
7 -6 10 -13z m40 -94 c-4 -10 -2 -14 4 -10 6 4 13 0 16 -8 5 -12 2 -12 -18 -3
-19 9 -22 14 -14 25 15 18 20 16 12 -4z m3513 -45 c-3 -13 -5 -26 -5 -30 -2
-12 -41 -30 -41 -18 0 5 7 10 15 10 8 0 16 5 16 10 1 6 3 15 4 20 1 6 3 15 4
20 0 6 3 10 6 10 3 0 3 -10 1 -22z m53 15 c9 7 8 2 -3 -11 -20 -23 -28 -22
-32 5 -2 11 0 13 8 5 9 -9 16 -8 27 1z m-3499 -53 c-8 -5 -19 -10 -25 -10 -5
0 -3 5 5 10 8 5 20 10 25 10 6 0 3 -5 -5 -10z m3269 -166 c14 -12 -19 -1 -35
12 -18 14 -18 14 6 3 14 -6 27 -13 29 -15z m-392 -320 c-3 -3 -12 -4 -19 -1
-8 3 -5 6 6 6 11 1 17 -2 13 -5z m-3403 -23 c-3 -4 -8 -5 -10 -3 -3 1 -12 -4
-20 -13 -9 -8 -21 -15 -27 -15 -7 0 -4 5 6 11 9 6 15 14 13 18 -3 4 6 7 19 7
14 0 22 -2 19 -5z m3289 -114 c-2 -4 -3 -11 -3 -16 0 -5 -8 -8 -17 -6 -10 2
-22 4 -27 4 -5 1 -3 7 3 15 11 14 49 16 44 3z m-101 -74 c-6 -2 -10 -8 -7 -13
2 -4 -4 -15 -14 -24 -13 -11 -21 -14 -26 -7 -3 6 1 11 11 11 14 0 15 2 3 17
-8 10 -9 14 -2 10 6 -4 14 -3 18 3 3 5 12 10 18 9 9 0 8 -2 -1 -6z m-3585
-122 c-1 -16 -4 -18 -16 -8 -12 10 -14 9 -8 -6 4 -11 3 -16 -3 -12 -6 3 -13
-1 -16 -9 -3 -9 -10 -14 -14 -11 -5 3 -11 1 -15 -5 -3 -5 2 -10 11 -10 10 0
15 -3 11 -6 -3 -4 -14 -3 -23 0 -15 6 -13 11 17 39 19 17 37 30 42 29 4 -1 7
3 7 8 0 6 2 10 4 10 3 0 4 -9 3 -19z m-134 -98 c-5 -12 -3 -14 7 -8 8 5 11 4
6 -3 -4 -6 -13 -9 -21 -5 -10 3 -14 0 -12 -8 2 -8 2 -11 0 -6 -3 4 -10 4 -16
0 -7 -3 -1 6 12 20 28 31 33 33 24 10z m3370 -125 c-11 -13 -19 -15 -24 -7 -5
8 -8 8 -13 0 -4 -6 -12 -11 -18 -11 -5 0 0 8 12 18 12 10 30 18 41 18 17 0 17
-2 2 -18z m-3653 -99 c-7 -11 -14 -18 -17 -15 -3 3 0 12 7 21 18 21 23 19 10
-6z m3415 -103 c-9 -13 -24 -23 -33 -21 -9 2 -20 4 -24 4 -5 1 -8 5 -8 10 0 6
9 8 20 6 11 -2 26 2 33 10 20 23 29 17 12 -9z m-632 -9 c3 -8 -1 -14 -8 -14
-7 0 -11 6 -8 14 3 7 6 13 8 13 2 0 5 -6 8 -13z m240 0 c3 -8 -1 -14 -8 -14
-7 0 -11 6 -8 14 3 7 6 13 8 13 2 0 5 -6 8 -13z m240 0 c3 -8 -1 -14 -8 -14
-7 0 -11 6 -8 14 3 7 6 13 8 13 2 0 5 -6 8 -13z m-1051 -4 c-6 -2 -10 -8 -8
-12 3 -4 -1 -8 -9 -8 -11 0 -12 4 -4 14 6 7 17 13 23 12 7 0 6 -2 -2 -6z
m-2331 -26 c-10 -9 -11 -8 -5 6 3 10 9 15 12 12 3 -3 0 -11 -7 -18z m2369 13
c0 -5 -4 -10 -10 -10 -5 0 -10 5 -10 10 0 6 5 10 10 10 6 0 10 -4 10 -10z
m480 0 c0 -5 -4 -10 -10 -10 -5 0 -10 5 -10 10 0 6 5 10 10 10 6 0 10 -4 10
-10z m-2939 -52 c-11 -11 -18 -26 -14 -31 3 -6 1 -7 -5 -3 -7 4 -12 1 -12 -6
0 -9 -3 -9 -10 2 -9 13 -14 7 -11 -12 0 -4 -7 -4 -17 -1 -15 6 -16 5 -2 -13
14 -17 13 -18 -1 -7 -9 7 -18 12 -20 10 -3 -1 4 6 16 17 11 10 19 22 18 26 -1
5 5 7 15 6 9 -2 23 5 30 15 7 11 18 19 23 19 5 0 1 -10 -10 -22z m-110 -95
c13 -16 12 -17 -3 -4 -10 7 -18 15 -18 17 0 8 8 3 21 -13z m-18 -17 c4 -10 0
-12 -15 -8 -15 4 -17 7 -6 13 17 11 15 11 21 -5z m-13 -20 c0 -3 -4 -8 -10
-11 -5 -3 -10 -1 -10 4 0 6 5 11 10 11 6 0 10 -2 10 -4z m-60 -26 c-5 -10 -6
-21 -2 -25 4 -5 2 -5 -5 -1 -15 8 -13 43 3 43 9 0 10 -6 4 -17z m-100 -119 c3
-2 -3 -1 -14 3 -14 5 -17 3 -12 -11 5 -16 4 -16 -9 1 -27 36 -3 41 35 7z
m2279 12 c-3 -20 2 -24 16 -13 26 21 23 7 -4 -19 -15 -14 -22 -17 -18 -8 3 9
2 19 -3 22 -13 8 -13 25 0 25 6 0 9 -3 9 -7z m-2405 -89 c3 -8 2 -12 -4 -9 -6
3 -10 10 -10 16 0 14 7 11 14 -7z m2301 -22 c4 10 11 15 17 12 8 -5 -48 -54
-61 -54 -3 0 2 7 12 14 12 9 14 16 8 21 -6 3 -11 11 -11 18 0 6 6 2 14 -9 14
-18 15 -18 21 -2z m-100 -32 c3 -5 1 -10 -4 -10 -6 0 -11 5 -11 10 0 6 2 10 4
10 3 0 8 -4 11 -10z"/>
<path d="M4655 5030 c10 -11 20 -20 23 -20 3 0 -3 9 -13 20 -10 11 -20 20 -23
20 -3 0 3 -9 13 -20z"/>
<path d="M1746 6198 c3 -4 9 -8 15 -8 5 0 9 4 9 8 0 5 -7 9 -15 9 -8 0 -12 -4
-9 -9z"/>
<path d="M1780 6185 c-14 -16 -3 -20 19 -6 8 5 9 11 3 15 -5 3 -15 -1 -22 -9z"/>
<path d="M1795 6160 c-3 -5 -1 -10 4 -10 6 0 11 5 11 10 0 6 -2 10 -4 10 -3 0
-8 -4 -11 -10z"/>
<path d="M3975 6161 c-3 -5 -2 -12 3 -15 5 -3 9 1 9 9 0 17 -3 19 -12 6z"/>
<path d="M3987 6093 c-4 -4 31 -73 37 -73 1 0 2 9 2 19 0 11 -4 17 -9 14 -5
-3 -6 4 -3 15 6 19 -15 38 -27 25z"/>
<path d="M1872 6047 c1 -16 7 -23 15 -20 9 4 11 -1 7 -13 -5 -15 -4 -16 4 -5
7 10 7 21 1 32 -15 29 -29 32 -27 6z"/>
<path d="M4067 6039 c7 -7 15 -10 18 -7 3 3 -2 9 -12 12 -14 6 -15 5 -6 -5z"/>
<path d="M1890 5985 c0 -2 8 -9 18 -14 14 -7 19 -6 19 3 0 6 -9 13 -19 13 -10
1 -18 0 -18 -2z"/>
<path d="M4135 5900 c3 -5 8 -10 11 -10 2 0 4 5 4 10 0 6 -5 10 -11 10 -5 0
-7 -4 -4 -10z"/>
<path d="M4195 5798 c1 -12 7 -23 14 -24 6 -1 7 0 2 2 -6 3 -8 11 -5 19 3 7 1
15 -4 19 -5 3 -8 -5 -7 -16z"/>
<path d="M1995 5800 c-3 -6 1 -7 9 -4 18 7 21 14 7 14 -6 0 -13 -4 -16 -10z"/>
<path d="M2030 5789 c0 -5 5 -7 10 -4 6 3 10 8 10 11 0 2 -4 4 -10 4 -5 0 -10
-5 -10 -11z"/>
<path d="M1790 5776 c0 -2 7 -7 16 -10 8 -3 12 -2 9 4 -6 10 -25 14 -25 6z"/>
<path d="M760 5754 c0 -8 5 -12 10 -9 6 3 10 10 10 16 0 5 -4 9 -10 9 -5 0
-10 -7 -10 -16z"/>
<path d="M880 5754 c0 -8 5 -12 10 -9 6 3 10 10 10 16 0 5 -4 9 -10 9 -5 0
-10 -7 -10 -16z"/>
<path d="M1000 5754 c0 -8 5 -12 10 -9 6 3 10 10 10 16 0 5 -4 9 -10 9 -5 0
-10 -7 -10 -16z"/>
<path d="M1120 5754 c0 -8 5 -12 10 -9 6 3 10 10 10 16 0 5 -4 9 -10 9 -5 0
-10 -7 -10 -16z"/>
<path d="M1240 5754 c0 -8 5 -12 10 -9 6 3 10 10 10 16 0 5 -4 9 -10 9 -5 0
-10 -7 -10 -16z"/>
<path d="M1360 5754 c0 -8 5 -12 10 -9 6 3 10 10 10 16 0 5 -4 9 -10 9 -5 0
-10 -7 -10 -16z"/>
<path d="M1480 5754 c0 -8 5 -12 10 -9 6 3 10 10 10 16 0 5 -4 9 -10 9 -5 0
-10 -7 -10 -16z"/>
<path d="M1600 5754 c0 -8 5 -12 10 -9 6 3 10 10 10 16 0 5 -4 9 -10 9 -5 0
-10 -7 -10 -16z"/>
<path d="M1720 5754 c0 -8 5 -12 10 -9 6 3 10 10 10 16 0 5 -4 9 -10 9 -5 0
-10 -7 -10 -16z"/>
<path d="M10 5680 c0 -5 5 -10 11 -10 5 0 7 5 4 10 -3 6 -8 10 -11 10 -2 0 -4
-4 -4 -10z"/>
<path d="M45 5680 c-3 -5 1 -10 10 -10 9 0 13 5 10 10 -3 6 -8 10 -10 10 -2 0
-7 -4 -10 -10z"/>
<path d="M4296 5667 c3 -10 9 -15 12 -12 3 3 0 11 -7 18 -10 9 -11 8 -5 -6z"/>
<path d="M4264 5653 c2 -10 6 -17 10 -16 15 3 16 11 2 22 -12 10 -14 9 -12 -6z"/>
<path d="M122 5558 c-8 -10 -5 -13 13 -13 18 0 21 3 13 13 -6 6 -12 12 -13 12
-1 0 -7 -6 -13 -12z"/>
<path d="M96 5518 c3 -5 10 -6 15 -3 13 9 11 12 -6 12 -8 0 -12 -4 -9 -9z"/>
<path d="M4393 5515 c0 -8 4 -12 9 -9 4 3 8 9 8 15 0 5 -4 9 -8 9 -5 0 -9 -7
-9 -15z"/>
<path d="M141 5484 c0 -11 3 -14 6 -6 3 7 2 16 -1 19 -3 4 -6 -2 -5 -13z"/>
<path d="M4470 5400 c0 -5 5 -10 11 -10 5 0 7 5 4 10 -3 6 -8 10 -11 10 -2 0
-4 -4 -4 -10z"/>
<path d="M302 5240 c0 -14 2 -19 5 -12 2 6 2 18 0 25 -3 6 -5 1 -5 -13z"/>
<path d="M4630 5140 c0 -5 5 -10 11 -10 5 0 7 5 4 10 -3 6 -8 10 -11 10 -2 0
-4 -4 -4 -10z"/>
<path d="M373 5125 c0 -8 4 -12 9 -9 5 3 6 10 3 15 -9 13 -12 11 -12 -6z"/>
<path d="M442 5071 c-11 -7 -11 -9 2 -14 10 -4 13 -13 10 -24 -5 -15 -4 -15 4
-3 7 9 7 19 2 26 -6 6 -7 14 -3 17 9 10 1 8 -15 -2z"/>
<path d="M460 4999 c0 -5 5 -7 10 -4 6 3 10 8 10 11 0 2 -4 4 -10 4 -5 0 -10
-5 -10 -11z"/>
<path d="M517 4907 c-3 -8 1 -14 8 -14 7 0 11 6 8 14 -3 7 -6 13 -8 13 -2 0
-5 -6 -8 -13z"/>
<path d="M559 4898 c-5 -10 -5 -47 0 -42 3 3 6 9 6 12 0 4 4 13 8 20 5 7 4 12
-2 12 -6 0 -12 -1 -12 -2z"/>
<path d="M621 4724 c0 -11 3 -14 6 -6 3 7 2 16 -1 19 -3 4 -6 -2 -5 -13z"/>
<path d="M657 4685 c3 -8 9 -12 14 -9 12 7 11 11 -5 17 -10 4 -13 1 -9 -8z"/>
<path d="M4937 4636 c-3 -8 -3 -17 1 -21 4 -4 7 -12 7 -17 0 -19 22 -20 29 -1
4 9 4 14 0 10 -11 -11 -33 13 -27 29 3 8 3 14 0 14 -3 0 -7 -6 -10 -14z"/>
<path d="M806 4442 c-3 -5 1 -9 9 -9 8 0 12 4 9 9 -3 4 -7 8 -9 8 -2 0 -6 -4
-9 -8z"/>
<path d="M854 4409 c-4 -8 -3 -9 4 -5 15 9 16 -6 2 -20 -6 -6 -2 -10 12 -11
16 -2 19 0 9 6 -10 7 -10 10 -1 13 9 3 8 7 -3 16 -12 10 -17 10 -23 1z"/>
<path d="M5110 4319 c0 -5 5 -7 10 -4 6 3 10 8 10 11 0 2 -4 4 -10 4 -5 0 -10
-5 -10 -11z"/>
<path d="M5156 4281 c-3 -5 1 -14 9 -21 8 -7 12 -16 9 -21 -3 -5 0 -9 5 -9 6
0 10 -5 9 -11 -2 -6 8 -18 22 -26 l25 -15 -25 22 c-25 23 -25 23 -2 17 12 -3
20 -1 16 4 -3 5 -11 9 -19 9 -7 0 -17 9 -20 20 -3 11 -11 20 -16 20 -6 0 -7 5
-4 10 3 6 4 10 1 10 -3 0 -7 -4 -10 -9z"/>
<path d="M941 4253 c-1 -17 19 -27 31 -15 6 6 6 12 -3 17 -8 5 -10 4 -5 -3 4
-7 3 -12 -3 -12 -5 0 -12 6 -14 13 -4 9 -6 9 -6 0z"/>
<path d="M5208 4169 c6 -9 8 -20 4 -25 -4 -4 2 -2 13 6 30 21 32 24 14 17 -9
-3 -23 0 -30 6 -11 10 -11 9 -1 -4z"/>
<path d="M5256 4123 c-3 -3 -2 -11 2 -17 4 -6 7 -15 7 -20 0 -5 9 -12 21 -16
15 -6 21 -4 21 6 0 10 -7 12 -21 9 -19 -6 -19 -5 -4 8 15 12 15 14 -2 24 -10
7 -20 9 -24 6z"/>
<path d="M1034 4085 c3 -23 12 -26 13 -5 1 11 -2 20 -7 20 -4 0 -7 -7 -6 -15z"/>
<path d="M5345 4020 c-3 -6 1 -7 9 -4 18 7 21 14 7 14 -6 0 -13 -4 -16 -10z"/>
<path d="M1120 3940 c-9 -6 -10 -10 -3 -10 6 0 15 5 18 10 8 12 4 12 -15 0z"/>
<path d="M5396 3917 c3 -10 9 -15 12 -12 3 3 0 11 -7 18 -10 9 -11 8 -5 -6z"/>
<path d="M5429 3903 c-13 -16 -12 -17 4 -4 9 7 17 15 17 17 0 8 -8 3 -21 -13z"/>
<path d="M1196 3818 c3 -5 10 -6 15 -3 13 9 11 12 -6 12 -8 0 -12 -4 -9 -9z"/>
<path d="M5506 3782 c-3 -5 1 -9 9 -9 8 0 12 4 9 9 -3 4 -7 8 -9 8 -2 0 -6 -4
-9 -8z"/>
<path d="M1330 3675 c0 -8 4 -15 10 -15 5 0 7 7 4 15 -4 8 -8 15 -10 15 -2 0
-4 -7 -4 -15z"/>
<path d="M1387 3575 c-18 -13 -23 -26 -9 -24 4 1 10 0 15 -1 6 -2 19 -6 32 -9
3 0 1 -10 -5 -20 -12 -24 3 -37 19 -17 9 11 7 22 -12 49 -20 29 -26 33 -40 22z
m23 -15 c0 -5 -2 -10 -4 -10 -3 0 -8 5 -11 10 -3 6 -1 10 4 10 6 0 11 -4 11
-10z m21 -53 c-10 -9 -11 -8 -5 6 3 10 9 15 12 12 3 -3 0 -11 -7 -18z"/>
<path d="M5629 3533 c-13 -16 -12 -17 4 -4 16 13 21 21 13 21 -2 0 -10 -8 -17
-17z"/>
<path d="M5747 3366 c-3 -8 -2 -18 4 -22 16 -9 22 2 11 21 -8 15 -10 16 -15 1z"/>
<path d="M1530 3286 c0 -2 7 -7 16 -10 8 -3 12 -2 9 4 -6 10 -25 14 -25 6z"/>
<path d="M1581 3244 c0 -11 3 -14 6 -6 3 7 2 16 -1 19 -3 4 -6 -2 -5 -13z"/>
<path d="M5817 3243 c-11 -11 -8 -20 8 -20 8 0 12 4 9 8 -2 4 2 10 8 12 9 4 8
6 -3 6 -9 1 -19 -2 -22 -6z"/>
<path d="M5882 3160 c-12 -10 -19 -21 -15 -23 5 -3 16 6 26 19 21 29 19 30
-11 4z"/>
<path d="M1682 3136 c4 -5 2 -16 -4 -25 -7 -9 -9 -13 -4 -9 10 8 36 -15 36
-31 0 -14 17 -14 25 -2 3 6 -4 15 -15 21 -11 6 -18 15 -15 19 2 5 -3 15 -13
22 -9 7 -14 9 -10 5z"/>
<path d="M5947 3049 c6 -23 9 -24 16 -5 3 8 0 17 -7 19 -10 4 -12 -1 -9 -14z"/>
<path d="M5990 3026 c0 -2 7 -7 16 -10 8 -3 12 -2 9 4 -6 10 -25 14 -25 6z"/>
<path d="M1730 2999 c0 -5 5 -7 10 -4 6 3 10 8 10 11 0 2 -4 4 -10 4 -5 0 -10
-5 -10 -11z"/>
<path d="M6066 2898 c3 -4 9 -8 15 -8 5 0 9 4 9 8 0 5 -7 9 -15 9 -8 0 -12 -4
-9 -9z"/>
<path d="M1835 2850 c-4 -6 1 -7 11 -3 11 4 15 2 11 -4 -4 -6 0 -14 8 -17 13
-4 14 -2 5 14 -12 22 -25 26 -35 10z"/>
<path d="M1850 2816 c0 -2 8 -10 18 -17 15 -13 16 -12 3 4 -13 16 -21 21 -21
13z"/>
<path d="M6146 2782 c-3 -5 1 -9 9 -9 8 0 12 4 9 9 -3 4 -7 8 -9 8 -2 0 -6 -4
-9 -8z"/>
<path d="M6144 2729 c-8 -14 13 -18 30 -6 16 12 16 13 -4 13 -12 0 -23 -4 -26
-7z"/>
<path d="M1942 2725 c4 -4 3 -14 -3 -22 -7 -8 -8 -13 -1 -13 15 0 23 28 9 36
-7 4 -9 4 -5 -1z"/>
<path d="M6194 2696 c1 -8 5 -18 8 -22 4 -3 5 1 4 10 -1 8 -5 18 -8 22 -4 3
-5 -1 -4 -10z"/>
<path d="M2074 2496 c-3 -9 -11 -13 -17 -9 -6 4 -7 1 -2 -7 6 -10 11 -9 21 4
9 13 13 14 17 4 2 -7 7 -10 11 -7 4 3 0 12 -9 19 -12 10 -16 9 -21 -4z"/>
<path d="M6316 2478 c3 -4 9 -8 15 -8 5 0 9 4 9 8 0 5 -7 9 -15 9 -8 0 -12 -4
-9 -9z"/>
<path d="M6380 2360 c0 -5 5 -10 11 -10 5 0 7 5 4 10 -3 6 -8 10 -11 10 -2 0
-4 -4 -4 -10z"/>
<path d="M2155 2331 c-3 -5 -2 -12 3 -15 5 -3 9 1 9 9 0 17 -3 19 -12 6z"/>
<path d="M2192 2328 c3 -7 13 -15 24 -17 16 -3 17 -1 5 13 -16 19 -34 21 -29
4z"/>
<path d="M2304 2146 c-19 -15 -19 -15 2 -13 11 0 21 7 21 14 0 16 1 16 -23 -1z"/>
<path d="M2375 2021 c-3 -6 3 -9 14 -8 11 0 17 5 15 9 -7 11 -22 10 -29 -1z"/>
<path d="M6021 2007 c-16 -20 -3 -27 25 -15 18 8 21 14 12 20 -18 11 -24 10
-37 -5z"/>
<path d="M2466 1858 c3 -5 10 -6 15 -3 13 9 11 12 -6 12 -8 0 -12 -4 -9 -9z"/>
<path d="M5836 1831 c-3 -5 1 -14 8 -20 12 -10 13 -8 9 8 -6 23 -9 25 -17 12z"/>
<path d="M2405 1817 c-15 -12 -16 -15 -4 -22 8 -5 11 -5 7 0 -4 4 0 14 10 21
23 18 11 18 -13 1z"/>
<path d="M2374 1778 c-5 -7 -2 -8 6 -3 10 6 12 4 6 -10 -5 -15 -4 -16 9 -5 19
15 19 16 0 23 -8 4 -17 1 -21 -5z"/>
<path d="M2295 1711 c-4 -14 -11 -18 -23 -14 -14 6 -15 5 -2 -9 8 -9 17 -12
18 -7 2 5 7 7 10 5 4 -2 8 7 8 20 2 29 -2 31 -11 5z"/>
<path d="M2235 1691 c-3 -5 -2 -12 3 -15 5 -3 9 1 9 9 0 17 -3 19 -12 6z"/>
<path d="M2129 1603 c-13 -16 -12 -17 4 -4 9 7 17 15 17 17 0 8 -8 3 -21 -13z"/>
<path d="M5567 1583 c-2 -4 -1 -17 4 -28 6 -17 8 -17 8 -3 1 12 6 15 19 11 18
-7 17 -5 -10 15 -9 7 -18 9 -21 5z"/>
<path d="M2013 1505 c0 -8 4 -12 9 -9 5 3 6 10 3 15 -9 13 -12 11 -12 -6z"/>
<path d="M1835 1360 c-3 -5 -1 -10 4 -10 6 0 11 5 11 10 0 6 -2 10 -4 10 -3 0
-8 -4 -11 -10z"/>
<path d="M5301 1346 c-10 -12 -8 -13 8 -9 12 3 18 9 15 14 -7 12 -10 11 -23
-5z"/>
<path d="M1818 1338 c10 -13 10 -17 0 -20 -7 -3 -5 -7 7 -12 11 -4 16 -4 12 0
-4 4 -1 14 5 23 7 9 8 13 4 9 -5 -4 -16 -2 -25 5 -14 10 -14 10 -3 -5z"/>
<path d="M1695 1241 c-3 -5 -2 -12 3 -15 5 -3 9 1 9 9 0 17 -3 19 -12 6z"/>
<path d="M5048 1098 c-29 -29 -55 -53 -59 -53 -18 0 -16 -11 1 -12 11 -1 20 3
20 8 0 6 5 7 10 4 6 -4 9 -1 8 7 -2 7 5 12 14 12 11 -1 15 5 13 17 -4 20 22
39 43 32 6 -3 12 0 12 7 0 6 5 8 13 4 8 -5 8 -2 -2 9 -7 9 -15 17 -18 17 -2 0
-27 -24 -55 -52z"/>
<path d="M1230 860 c0 -5 5 -10 11 -10 5 0 7 5 4 10 -3 6 -8 10 -11 10 -2 0
-4 -4 -4 -10z"/>
<path d="M1183 805 c7 -8 16 -10 23 -4 6 5 14 7 17 4 4 -3 5 -2 2 2 -3 3 -16
7 -30 9 -20 2 -22 0 -12 -11z"/>
<path d="M1130 799 c0 -5 5 -7 10 -4 6 3 10 8 10 11 0 2 -4 4 -10 4 -5 0 -10
-5 -10 -11z"/>
<path d="M4671 756 c-9 -11 -9 -16 0 -22 7 -4 9 -3 5 4 -3 5 0 12 6 15 7 2 10
7 7 11 -3 4 -12 0 -18 -8z"/>
<path d="M1063 724 c8 -14 -20 -27 -35 -17 -7 4 -8 1 -4 -6 5 -7 15 -10 25 -7
12 5 11 2 -3 -9 -16 -12 -22 -12 -28 -2 -6 8 -8 6 -6 -8 2 -13 -2 -20 -12 -19
-9 1 -17 -8 -17 -19 -2 -18 0 -18 25 5 15 14 37 31 49 37 21 11 25 33 8 48 -4
4 -5 3 -2 -3z"/>
<path d="M3820 630 c18 -12 30 -13 30 -2 0 4 -10 9 -22 9 -18 2 -20 0 -8 -7z"/>
<path d="M4110 630 c0 -5 5 -10 11 -10 5 0 7 5 4 10 -3 6 -8 10 -11 10 -2 0
-4 -4 -4 -10z"/>
<path d="M4213 623 c0 -9 4 -10 14 -2 7 6 13 12 13 14 0 1 -6 2 -13 2 -8 0
-14 -6 -14 -14z"/>
<path d="M4350 630 c0 -5 5 -10 11 -10 5 0 7 5 4 10 -3 6 -8 10 -11 10 -2 0
-4 -4 -4 -10z"/>
<path d="M3244 569 c-3 -6 -3 -13 0 -16 3 -4 6 0 6 8 0 12 2 12 9 0 5 -8 11
-9 15 -3 3 5 -1 12 -9 16 -8 3 -17 1 -21 -5z"/>
<path d="M3212 550 c-7 -11 -8 -20 -3 -20 9 0 24 30 18 36 -1 2 -8 -6 -15 -16z"/>
<path d="M3110 439 c0 -6 -7 -8 -17 -5 -10 4 -14 4 -10 0 4 -4 1 -14 -6 -22
-8 -11 -8 -14 0 -9 6 4 13 2 16 -5 2 -7 3 -5 2 4 -2 10 5 20 16 23 20 7 26 25
9 25 -5 0 -10 -5 -10 -11z"/>
<path d="M3036 387 c-18 -13 -18 -14 -1 -21 10 -3 20 -4 23 -1 3 3 0 5 -7 5
-7 0 -9 5 -6 10 4 6 11 7 17 4 7 -4 8 -2 4 4 -9 15 -8 15 -30 -1z"/>
<path d="M469 253 c-1 -4 -1 -12 0 -17 1 -5 -6 -5 -16 -2 -13 5 -15 4 -7 -4
11 -11 44 -4 44 10 0 12 -20 23 -21 13z"/>
<path d="M425 209 c-4 -5 -11 -6 -17 -3 -7 4 -8 2 -4 -5 4 -6 12 -9 17 -6 5 4
12 -1 15 -10 6 -13 8 -14 15 -3 5 7 9 16 9 19 0 12 -29 18 -35 8z"/>
</g>
</svg>
